<?xml version="1.0" encoding="utf-8"?>
<!-- Generator: Adobe Illustrator 24.1.0, SVG Export Plug-In . SVG Version: 6.00 Build 0)  -->
<svg version="1.1" xmlns="http://www.w3.org/2000/svg" xmlns:xlink="http://www.w3.org/1999/xlink" x="0px" y="0px"
	 viewBox="0 0 539.5 296.8" style="enable-background:new 0 0 539.5 296.8;" xml:space="preserve">
<style type="text/css">
	.st0{fill:#B00000;}
	.st1{fill:none;}
	.st2{fill:#FFFFFF;}
</style>
<g id="Layer_2">
	<rect class="st0" width="539.5" height="296.8"/>
</g>
<g id="Layer_1">
	<path class="st1" d="M320,246.7h-43.5h-12v10.1h12h43c46.6,0,89-17.7,121-46.8l-7.2-7.2C403.3,230,363.5,246.6,320,246.7z"/>
	<path class="st1" d="M164.4,134.2l7.1-7.1C158.3,114.4,150.1,96.7,150,77V62h-10v14.8C140,99.3,149.4,119.6,164.4,134.2z"/>
	<path class="st1" d="M263,246.7h-43.5c-46.2-0.1-88.1-18.8-118.8-48.9l-7.1,7.1c32.5,32.1,77.1,51.9,126.4,51.9h43h1.5v-10.1H263z"
		/>
	<path class="st1" d="M276.5,146.7h-12v10.1h12h43c19,0,36.4-6.7,50.1-17.7l-7.2-7.2c-11.7,9.1-26.5,14.7-42.5,14.8H276.5z"/>
	<path class="st1" d="M276.5,196.7h-12v10.1h12h43c32.8,0,62.7-12.2,85.6-32.2l-7.1-7.1c-20.9,18.1-48.2,29.1-78,29.3H276.5z"/>
	<path class="st1" d="M263,156.8h1.5v-10.1H263h-43.5c-18.6-0.1-35.6-7.6-48.1-19.6l-7.1,7.1c14.4,14,34,22.6,55.6,22.6H263z"/>
	<path class="st1" d="M389.5,77c-0.1,22.3-10.6,42.2-27,54.9l7.2,7.2c18.2-14.7,29.9-37.1,29.9-62.3V70h40v7
		c-0.1,36.1-16.1,68.5-41.5,90.4l7.1,7.1c27.2-23.8,44.4-58.8,44.4-97.8V70h40v7c-0.1,49.9-21.7,94.7-56.1,125.8l7.2,7.2
		c36.2-32.9,59-80.4,59-133.2V62h-110V77z"/>
	<path class="st1" d="M129,169.6l7.1-7.1c-22.2-21.7-36-52-36.1-85.5V62H90v14.8C90,113.1,104.9,145.9,129,169.6z"/>
	<path class="st1" d="M93.6,204.9l7.1-7.1C69.5,167,50.1,124.2,50,77V62H40v14.8C40,126.9,60.5,172.2,93.6,204.9z"/>
	<path class="st1" d="M263,206.8h1.5v-10.1H263h-43.5c-32.4-0.1-61.9-13.1-83.4-34.2l-7.1,7.1c23.5,23,55.6,37.2,91,37.2H263z"/>
	<path class="st2" d="M263,246.7h1.5v-39.9H263h-43c-35.4,0-67.5-14.2-91-37.2l-28.2,28.2c30.6,30.1,72.5,48.8,118.8,48.9H263z"/>
	<path class="st2" d="M100.7,197.8l28.2-28.2c-24.1-23.6-39-56.5-39-92.8V62H50v15C50.1,124.2,69.5,167,100.7,197.8z"/>
	<path class="st2" d="M276.5,206.8h-12v39.9h12H320c43.5-0.1,83.3-16.7,113.4-43.9l-28.3-28.3c-22.9,20.1-52.8,32.2-85.6,32.2H276.5
		z"/>
	<rect x="50" class="st2" width="40" height="62"/>
	<path class="st2" d="M489.5,77v-7h-40v6.8c0,38.9-17.2,73.9-44.4,97.8l28.3,28.3C467.8,171.7,489.4,126.9,489.5,77z"/>
	<path class="st2" d="M263,196.7h1.5v-39.9H263h-43c-21.6,0-41.2-8.6-55.6-22.6l-28.3,28.3c21.5,21.1,51,34.1,83.4,34.2H263z"/>
	<path class="st2" d="M439.5,77v-7h-40v6.8c0,25.1-11.7,47.6-29.9,62.3l28.3,28.3C423.4,145.5,439.4,113.1,439.5,77z"/>
	<rect x="100" class="st2" width="40" height="62"/>
	<path class="st2" d="M136.1,162.5l28.3-28.3c-15-14.6-24.4-34.9-24.4-57.4V62h-40v15C100.1,110.5,113.9,140.7,136.1,162.5z"/>
	<path class="st2" d="M276.5,156.8h-12v39.9h12H320c29.8-0.1,57-11.2,78-29.3l-28.3-28.3c-13.7,11.1-31.2,17.7-50.1,17.7H276.5z"/>
	<rect x="150" class="st2" width="40" height="62"/>
	<rect class="st2" width="40" height="62"/>
	<path class="st2" d="M333.7,103.2l28.7,28.7c16.4-12.8,27-32.6,27-54.9V62h-40v14.8C349.5,88.2,343.1,98.1,333.7,103.2z"/>
	<path class="st2" d="M319.5,256.8h-43h-12v39.9h12H320c55.7-0.1,108.1-20.8,148.8-58.4L440.5,210
		C408.5,239.1,366.1,256.8,319.5,256.8z"/>
	<path class="st2" d="M276.5,146.7H320c16-0.1,30.7-5.6,42.5-14.8l-28.7-28.7c-4.2,2.3-9.1,3.6-14.2,3.6h-43h-12v39.9H276.5z"/>
	<path class="st2" d="M539.5,77V62h-40v14.8c0,52.7-22.8,100.2-59,133.2l28.3,28.3c2.1-2,4.2-3.9,6.3-6
		C516.6,190.8,539.5,135.7,539.5,77z"/>
	<path class="st2" d="M40,76.8V62H0v15c0.1,58.7,22.9,113.8,64.4,155.3c0.3,0.3,0.6,0.6,0.9,0.9l28.3-28.3
		C60.5,172.2,40,126.9,40,76.8z"/>
	<path class="st2" d="M263,256.8h-43c-49.2,0-93.8-19.8-126.4-51.9l-28.3,28.3c41.3,40.8,96,63.4,154.2,63.5H263h1.5v-39.9H263z"/>
	<path class="st2" d="M263,146.7h1.5v-39.9H263h-43c-7.8,0-14.9-3-20.3-8l-28.3,28.3c12.5,12,29.4,19.5,48.1,19.6H263z"/>
	<path class="st2" d="M171.4,127.1l28.3-28.3c-6-5.5-9.7-13.3-9.7-22V62h-40v15C150.1,96.7,158.3,114.4,171.4,127.1z"/>
	<polygon class="st2" points="499.5,62 539.5,62 539.5,0 499.5,0 499.5,22 389.5,22 389.5,0 349.5,0 349.5,62 389.5,62 	"/>
</g>
</svg>
