<?xml version="1.0" encoding="utf-8"?>
<!-- Generator: Adobe Illustrator 24.1.0, SVG Export Plug-In . SVG Version: 6.00 Build 0)  -->
<svg version="1.1" id="Layer_1" xmlns="http://www.w3.org/2000/svg" xmlns:xlink="http://www.w3.org/1999/xlink" x="0px" y="0px"
	 viewBox="0 0 1119.9458008 60" style="enable-background:new 0 0 1119.9458008 60;" xml:space="preserve">
<style type="text/css">
	.st0{fill:#FFF;}
</style>
<g>
	<path class="st0" d="M9.9902344,60c-2.7636719,0-5.1171875-0.9765625-7.0605469-2.9296875
		C0.9765625,55.1171875,0,52.7636719,0,50.0097656V0h19.9951172v40.0048828h60V0h19.9951172v60H9.9902344z"/>
	<path class="st0" d="M119.9853516,60c-2.7636719,0-5.1171875-0.9765625-7.0605469-2.9296875
		c-1.953125-1.953125-2.9296875-4.3066406-2.9296875-7.0605469V0h19.9951172v40.0048828h79.9951172V60H119.9853516z"/>
	<path class="st0" d="M219.9902344,60V20.0097656h-79.9951172V0h90c2.7636719,0,5.1171875,0.9814453,7.0605469,2.9443359
		c1.953125,1.953125,2.9296875,4.3066406,2.9296875,7.0605469V60H219.9902344z"/>
	<path class="st0" d="M249.9902344,60V10.0048828c0-2.7539063,0.9765625-5.1074219,2.9296875-7.0605469
		C254.8632813,0.9814453,257.2167969,0,259.9804688,0h90v20.0097656h-79.9951172V60H249.9902344z"/>
	<path class="st0" d="M359.9853516,60V0h89.9995117c2.7636719,0,5.1171875,0.9814453,7.0605469,2.9443359
		c1.953125,1.953125,2.9296875,4.3066406,2.9296875,7.0605469V60h-19.9946289v-9.9902344h-60V60H359.9853516z M439.9804688,30
		v-9.9902344h-60V30H439.9804688z"/>
	<path class="st0" d="M469.980957,60V0h19.9951172v20.0097656h60V0h19.9951172v60h-19.9951172V40.0048828h-60V60H469.980957z"/>
	<path class="st0" d="M589.965332,60c-2.7636719,0-5.1171875-0.9765625-7.0605469-2.9296875
		c-1.953125-1.953125-2.9296875-4.3066406-2.9296875-7.0605469V0h19.9951172v40.0048828h60V0h19.9951172v60H589.965332z"/>
	<path class="st0" d="M689.9711914,60V10.0048828c0-2.7539063,0.9765625-5.1074219,2.9296875-7.0605469
		C694.8442383,0.9814453,697.1977539,0,699.9614258,0h90v20.0097656h-39.9902344V60h-20.0097656V20.0097656h-19.9951172V60
		H689.9711914z"/>
	<path class="st0" d="M799.965332,60V0h90c2.7636719,0,5.1171875,0.9814453,7.0605469,2.9443359
		c1.953125,1.953125,2.9296875,4.3066406,2.9296875,7.0605469V60h-19.9951172v-9.9902344h-60V60H799.965332z M879.9604492,30
		v-9.9902344h-60V30H879.9604492z"/>
	<path class="st0" d="M909.9614258,60V10.0048828c0-2.7539063,0.9765625-5.1074219,2.9296875-7.0605469
		C914.8344727,0.9814453,917.1879883,0,919.9516602,0h90v60H989.956543V20.0097656h-60V60H909.9614258z"/>
	<path class="st0" d="M1029.9458008,60c-2.7636719,0-5.1171875-0.9765625-7.0605469-2.9296875
		c-1.953125-1.953125-2.9296875-4.3066406-2.9296875-7.0605469V0h90c2.7636719,0,5.1171875,0.9814453,7.0605469,2.9443359
		c1.953125,1.953125,2.9296875,4.3066406,2.9296875,7.0605469V60H1029.9458008z M1099.9506836,40.0048828V20.0097656h-60v19.9951172
		H1099.9506836z"/>
</g>
</svg>
