<?xml version="1.0" encoding="utf-8"?>
<!-- Generator: Adobe Illustrator 24.1.0, SVG Export Plug-In . SVG Version: 6.00 Build 0)  -->
<svg version="1.1" id="Layer_2" xmlns="http://www.w3.org/2000/svg" xmlns:xlink="http://www.w3.org/1999/xlink" x="0px" y="0px"
	 viewBox="0 0 751 592" style="enable-background:new 0 0 751 592;" xml:space="preserve">
<style type="text/css">
	.st0{fill-rule:evenodd;clip-rule:evenodd;fill:#B00000;}
</style>
<g>
	<path class="st0" d="M60,0h631c33,0,60,27,60,60s-27,60-60,60H60C27,120,0,93,0,60S27,0,60,0z"/>
	<path class="st0" d="M60,236h631c33,0,60,27,60,60s-27,60-60,60H60c-33,0-60-27-60-60S27,236,60,236z"/>
	<path class="st0" d="M60,472h631c33,0,60,27,60,60s-27,60-60,60H60c-33,0-60-27-60-60S27,472,60,472z"/>
</g>
</svg>
