<?xml version="1.0" encoding="utf-8"?>
<!-- Generator: Adobe Illustrator 24.1.0, SVG Export Plug-In . SVG Version: 6.00 Build 0)  -->
<svg version="1.1" id="logo" xmlns="http://www.w3.org/2000/svg" xmlns:xlink="http://www.w3.org/1999/xlink" x="0px" y="0px"
	 viewBox="0 0 539.5 296.8" style="enable-background:new 0 0 539.5 296.8;" xml:space="preserve">
<style type="text/css">
	.st0{fill:#B00000;}
</style>
<path id="middle_bottom" class="st0" d="M219.5,246.7L219.5,246.7l43.5,0h13.5H320v0c93.4-0.3,169.4-76.3,169.5-169.7h0v-7h-40
	v6.8c0,71.7-58.3,130-130,130h-43H263h-43c-71.7,0-130-58.3-130-130V0H50v77h0C50.1,170.5,126.1,246.5,219.5,246.7z"/>
<path id="middle_top" class="st0" d="M219.5,196.7L219.5,196.7l43.5,0h13.5H320v0c65.9-0.3,119.4-53.9,119.5-119.7h0v-7h-40v6.8
	c0,44.1-35.9,80-80,80h-43H263h-43c-44.1,0-80-35.9-80-80V0h-40v77h0C100.1,142.9,153.6,196.5,219.5,196.7z"/>
<path id="main" class="st0" d="M499.5,0v22h-110V0h-40v76.8c0,16.5-13.5,30-30,30h-43H263h-43c-16.5,0-30-13.5-30-30V0h-40v77h0
	c0.1,38.3,31.2,69.5,69.5,69.7v0H263h13.5H320v0c38.3-0.3,69.4-31.4,69.5-69.7h0V62h110v14.8c0,99.3-80.7,180-180,180h-43H263h-43
	c-99.3,0-180-80.7-180-180V0H0v77h0c0.1,58.7,22.9,113.8,64.4,155.3c41.4,41.4,96.5,64.3,155.1,64.4v0H263h13.5H320v0
	c58.6-0.1,113.6-23,155.1-64.4c41.5-41.5,64.4-96.6,64.4-155.3h0V0H499.5z"/>
</svg>
