<svg id="Layer_1" data-name="Layer 1" xmlns="http://www.w3.org/2000/svg" viewBox="0 0 151.03046 151.00459"><defs><style>.cls-1{fill:#B00000;}</style></defs><title>uh_close_new</title><path class="cls-1" d="M105.67584,75.48932l39.0769-39.0769A21.34505,21.34505,0,1,0,114.56628,6.226h0l-39.0769,39.0769L36.41238,6.226A21.34505,21.34505,0,1,0,6.22592,36.41241h0l39.077,39.0769-39.077,39.077a21.40774,21.40774,0,0,0,0,30.1864v.00006a21.40782,21.40782,0,0,0,30.18646,0l39.077-39.077,39.0769,39.077a21.40782,21.40782,0,0,0,30.18646,0v-.00006a21.40774,21.40774,0,0,0,0-30.1864Z" transform="translate(0.02589 0.02586)"/></svg>