<?xml version="1.0" encoding="utf-8"?>
<!-- Generator: Adobe Illustrator 24.1.0, SVG Export Plug-In . SVG Version: 6.00 Build 0)  -->
<svg version="1.1" id="Layer_1" xmlns="http://www.w3.org/2000/svg" xmlns:xlink="http://www.w3.org/1999/xlink" x="0px" y="0px"
	 viewBox="0 0 632.9342651 126.1816406" style="enable-background:new 0 0 632.9342651 126.1816406;" xml:space="preserve">
<style type="text/css">
	.st0{fill:#B00000;}
</style>
<g>
	<g>
		<path class="st0" d="M7.0706425,36.4594574c-1.6793666,0-3.1094983-0.5934143-4.2903957-1.7802467
			C1.5934156,33.492382,1,32.0622482,1,30.3888168V6.0795436c0-1.6734324,0.5934156-3.103564,1.780247-4.2903953
			C3.9611442,0.5963827,5.3912759,0,7.0706425,0h54.6891861v12.1590872H13.1501856v12.1501856h48.6096458v12.1501846H7.0706425z"/>
		<path class="st0" d="M73.9100189,36.4594574c-1.6793671,0-3.1094971-0.5934143-4.2903976-1.7802467
			c-1.1868286-1.1868286-1.7802429-2.6169624-1.7802429-4.2903938V6.0795436c0-1.6734324,0.5934143-3.103564,1.7802429-4.2903953
			C70.8005219,0.5963827,72.2306519,0,73.9100189,0h54.6891937v18.2297287h-12.1501923v-6.0706415H79.989563v12.1501856h48.6096497
			v12.1501846H73.9100189z"/>
		<path class="st0" d="M134.6787567,36.4594574V6.0795436c0-1.6734324,0.5934143-3.103564,1.7802429-4.2903953
			C137.6398926,0.5963827,139.0700226,0,140.7493896,0h54.6891937v12.1590872h-48.6096497v24.3003693H134.6787567z"/>
		<path class="st0" d="M250.1277618,36.4594574V12.1590872h-48.6096344V0h54.6891785
			c1.6793823,0,3.1094971,0.5963827,4.2904053,1.7891482c1.1868286,1.1868314,1.7802429,2.6169629,1.7802429,4.2903953v30.3799133
			H250.1277618z"/>
		<path class="st0" d="M268.3575134,12.1590872V0h12.150177v12.1590872H268.3575134z M268.3575134,36.4594574V18.2297287h12.150177
			v18.2297287H268.3575134z"/>
		<path class="st0" d="M286.5872192,36.4594574V6.0795436c0-1.6734324,0.5934143-3.103564,1.7802429-4.2903953
			C289.5483704,0.5963827,290.9785156,0,292.6578674,0h54.6891785v12.1590872h-48.6096191v6.0706415h12.150177v12.1590881
			h-12.150177v6.0706406H286.5872192z"/>
		<path class="st0" d="M353.4266052,12.1590872V0h12.150177v12.1590872H353.4266052z M353.4266052,36.4594574V18.2297287h12.150177
			v18.2297287H353.4266052z"/>
		<path class="st0" d="M377.7269897,36.4594574c-1.6793823,0-3.1095276-0.5934143-4.2904053-1.7802467
			c-1.1868286-1.1868286-1.7802429-2.6169624-1.7802429-4.2903938V6.0795436c0-1.6734324,0.5934143-3.103564,1.7802429-4.2903953
			C374.6174622,0.5963827,376.0476074,0,377.7269897,0h54.6891785v12.1590872h-48.6096497v12.1501856h48.6096497v12.1501846
			H377.7269897z"/>
		<path class="st0" d="M438.495697,36.4594574V0h54.689209c1.6793518,0,3.1094971,0.5963827,4.2903748,1.7891482
			c1.1868286,1.1868314,1.7802429,2.6169629,1.7802429,4.2903953v30.3799133h-12.150177v-6.0706406h-36.4594421v6.0706406
			H438.495697z M487.1053467,18.2297287v-6.0706415h-36.4594421v6.0706415H487.1053467z"/>
		<path class="st0" d="M511.4057312,36.4594574c-1.6793823,0-3.1094971-0.5934143-4.2904053-1.7802467
			c-1.1868286-1.1868286-1.7802429-2.6169624-1.7802429-4.2903938V12.1590872c0-1.6793661,0.5934143-3.1124649,1.7802429-4.2992964
			s2.6169739-1.7802472,4.2904053-1.7802472h42.5389709V0h12.1502075v36.4594574H511.4057312z M553.9447021,24.3092728v-6.0795441
			h-36.4594116v6.0795441H553.9447021z"/>
		<path class="st0" d="M578.2451172,36.4594574c-1.6793823,0-3.1094971-0.5934143-4.2904053-1.7802467
			c-1.1868286-1.1868286-1.7802734-2.6169624-1.7802734-4.2903938V0h54.689209c1.6793823,0,3.1094971,0.5963827,4.2904053,1.7891482
			c1.1868286,1.1868314,1.7802124,2.6169629,1.7802124,4.2903953v30.3799133H578.2451172z M620.7841187,24.3092728V12.1590872
			H584.324646v12.1501856H620.7841187z"/>
	</g>
	<path class="st0" d="M165.8410492,126.1816406c-3.7968597,0-7.0302124-1.3416443-9.7000885-4.0249329
		c-2.6832886-2.6832886-4.0249329-5.9166489-4.0249329-9.7000809v-68.705574h27.4701538v54.960434h109.9007568v27.4701538
		H165.8410492z"/>
	<path class="st0" d="M303.2320557,126.1816406V71.241333H193.3313293V43.7510529h123.645874
		c3.7968445,0,7.0302124,1.3483543,9.7000732,4.0450554c2.6832886,2.6832886,4.0249329,5.9166489,4.0249329,9.7000847v68.6854477
		H303.2320557z"/>
	<path class="st0" d="M344.4473572,126.1816406V57.4961929c0-3.7834358,1.3416443-7.0167961,4.0249329-9.7000847
		c2.6698608-2.696701,5.9032288-4.0450554,9.7000732-4.0450554h123.6459045V71.241333H371.917511v54.9403076H344.4473572z"/>
	<path class="st0" d="M495.563385,126.1816406V43.7510529h123.6459045c3.796814,0,7.0302124,1.3483543,9.7000732,4.0450554
		c2.6832886,2.6832886,4.0249023,5.9166489,4.0249023,9.7000847v68.6854477h-27.4701538v-13.7250137h-82.430542v13.7250137
		H495.563385z M605.4641113,84.9663467V71.241333h-82.430542v13.7250137H605.4641113z"/>
	<g>
		<path class="st0" d="M60.9722443,112.2909851v0.0017624h12.0833359h3.7500076h12.0833359v-0.0017624
			c25.9514771-0.0752945,47.0448227-21.1909103,47.0824661-47.1510315h0.000885V63.195507h-11.1111145v1.8749962
			c0,19.91185-16.1994171,36.1111298-36.1111298,36.1111298H76.8055878h-3.7500076H61.1111336
			c-19.9117088,0-36.1111221-16.1992798-36.1111221-36.1111298V43.7510529H13.8888941v21.3889008h0.0008812
			C13.9274311,91.1000748,35.0207825,112.2156906,60.9722443,112.2909851z"/>
		<path class="st0" d="M60.9722443,98.402092v0.0017624h12.0833359h3.7500076h12.0833359V98.402092
			c18.29319-0.0751953,33.1559677-14.9604187,33.193573-33.2621384h0.000885V63.195507h-11.1111145v1.8749962
			c0,12.2534256-9.968811,22.2222366-22.2222366,22.2222366H76.8055878h-3.7500076H61.1111336
			c-12.2534218,0-22.222229-9.968811-22.222229-22.2222366V43.7510529H27.7777882v21.3889008h0.0008812
			C27.8162746,83.4416733,42.6790695,98.3268967,60.9722443,98.402092z"/>
		<path class="st0" d="M138.7500458,43.7510529v6.1111145h-30.5555573v-6.1111145H97.0833664v21.3194504
			c0,4.5950012-3.7383347,8.3333435-8.3333359,8.3333435H76.8055878h-3.7500076H61.1111336
			c-4.5949974,0-8.3333359-3.7383423-8.3333359-8.3333435V43.7510529H41.6666832v21.3889008h0.0017624
			c0.0376205,10.6430588,8.6693535,19.2963181,19.3037987,19.3714981v0.0035095h12.0833359h3.7500076h12.0833359v-0.0035095
			c10.6344452-0.0751801,19.2661591-8.7284393,19.3037949-19.3714981h0.00177v-4.1666718h30.5555573v4.0972214
			c0,27.5699997-22.4298782,50.0000229-50.0000153,50.0000229H76.8055878h-3.7500076H61.1111336
			c-27.5701332,0-50.0000191-22.4300232-50.0000191-50.0000229V43.7510529H0v21.3889008h0.0008477
			C0.01887,81.4372253,6.3730054,96.7565613,17.8990402,108.2826004
			c11.5094891,11.5096207,26.8017693,17.8613358,43.073204,17.8973465v0.0016937h12.0833359h3.7500076h12.0833359v-0.0016937
			c16.271431-0.0360107,31.5637283-6.3877258,43.073204-17.8973465
			c11.5260162-11.5260391,17.880188-26.8453751,17.8981934-43.1426468h0.0008392V43.7510529H138.7500458z"/>
	</g>
</g>
</svg>
