<?xml version="1.0" encoding="utf-8"?>
<!-- Generator: Adobe Illustrator 24.1.0, SVG Export Plug-In . SVG Version: 6.00 Build 0)  -->
<svg version="1.1" id="Layer_1" xmlns="http://www.w3.org/2000/svg" xmlns:xlink="http://www.w3.org/1999/xlink" x="0px" y="0px"
	 viewBox="0 0 539.5 381.5366516" style="enable-background:new 0 0 539.5 381.5366516;" xml:space="preserve">
<style type="text/css">
	.st0{fill:#B00000;}
</style>
<g>
	<g>
		<path id="middle_x5F_bottom" class="st0" d="M219.5,331.5366516L219.5,331.5366516H263h13.5H320l0,0
			c93.3999939-0.3000183,169.3999939-76.3000183,169.5-169.7000122l0,0v-7h-40v6.8000031
			c0,71.6999969-58.2999878,130.0000153-130,130.0000153h-43H263h-43c-71.6999969,0-130-58.3000183-130-130.0000153V84.836647H50
			v76.9999924l0,0C50.0999985,255.3366394,126.0999985,331.3366394,219.5,331.5366516z"/>
		<path id="middle_x5F_top" class="st0" d="M219.5,281.5366516L219.5,281.5366516H263h13.5H320l0,0
			c65.8999939-0.3000183,119.3999939-53.9000244,119.5-119.7000122l0,0v-7h-40v6.8000031c0,44.1000061-35.8999939,80-80,80h-43H263
			h-43c-44.1000061,0-80-35.8999939-80-80V84.836647h-40v76.9999924l0,0
			C100.0999985,227.7366333,153.6000061,281.3366394,219.5,281.5366516z"/>
		<path id="main_1_" class="st0" d="M389.5,146.8366394h110v14.8000031c0,99.3000031-80.7000122,179.9999847-180,179.9999847h-43
			H263h-43c-99.3000031,0-180-80.6999817-180-180V84.836647H0v76.9999924l0,0
			c0.1,58.6999969,22.8999996,113.8000183,64.4000015,155.3000183
			C105.8000031,358.5366516,160.8999939,381.4366455,219.5,381.5366516l0,0H263h13.5H320l0,0
			c58.6000061-0.1000061,113.6000061-23,155.1000061-64.3999939C516.5999756,275.6366577,539.5,220.5366516,539.5,161.8366547l0,0
			V84.836647h-40v22h-110v-22h-40v60.0000076"/>
		<path id="main" class="st0" d="M349.5,144.8366547v16.7999878c0,16.5-13.5,30-30,30h-43H263h-43c-16.5,0-30-13.5-30-30V84.836647
			h-40v76.9999924l0,0c0.1000061,38.3000031,31.1999969,69.5,69.5,69.6999969l0,0H263h13.5H320l0,0
			c38.2999878-0.3000031,69.3999939-31.3999939,69.5-69.6999969l0,0v-15"/>
	</g>
	<g>
		<path class="st0" d="M11.7174292,70.3732986c-3.241478,0-6.0018892-1.145401-8.2812328-3.4361954
			C1.1453987,64.6463089,0,61.8858948,0,58.6558723V0h23.4520397v46.9212608h70.3732986V0h23.4520416v70.3732986H11.7174292z"/>
		<path class="st0" d="M140.7294159,70.3732986c-3.2414703,0-6.0018921-1.145401-8.2812347-3.4361954
			c-2.2907867-2.2907944-3.4361877-5.0512085-3.4361877-8.2812309V0h23.4520416v46.9212608h93.8253326v23.4520378H140.7294159z"/>
		<path class="st0" d="M258.0239868,70.3732986V23.4692211h-93.8253479V0h105.5599365
			c3.2414856,0,6.0018921,1.1511258,8.28125,3.4533772c2.290802,2.2907977,3.4361877,5.051209,3.4361877,8.2812328v58.6386871
			H258.0239868z"/>
		<path class="st0" d="M293.2106323,70.3732986V11.7346106c0-3.2300243,1.1453857-5.9904356,3.4361877-8.2812328
			C298.926178,1.1511258,301.6865845,0,304.9280701,0h105.5599365v23.4692211h-93.8253479v46.9040756H293.2106323z"/>
		<path class="st0" d="M422.2226257,70.3732986V0h105.559967c3.2414551,0,6.0018921,1.1511258,8.281189,3.4533772
			C538.3546143,5.744175,539.5,8.5045862,539.5,11.7346106v58.6386871h-23.4520264V58.6558723h-70.3733215v11.7174263H422.2226257z
			 M516.0479736,35.1866493V23.4692211h-70.3733215v11.7174282H516.0479736z"/>
	</g>
</g>
</svg>
