<?xml version="1.0" encoding="utf-8"?>
<!-- Generator: Adobe Illustrator 24.1.0, SVG Export Plug-In . SVG Version: 6.00 Build 0)  -->
<svg height="75%" width="40px" version="1.1" id="Layer_1" xmlns="http://www.w3.org/2000/svg" xmlns:xlink="http://www.w3.org/1999/xlink" x="0px" y="0px"
	 viewBox="0 0 72 1343.9355469" style="enable-background:new 0 0 72 1343.9355469;" xml:space="preserve">
<style type="text/css">
	.st0{fill:#FFFFFF;}
</style>
<g>
	<path class="st0" d="M72,1331.9472656c0,3.3164063-1.171875,6.140625-3.515625,8.4726563
		c-2.34375,2.34375-5.1679688,3.515625-8.4726563,3.515625H0v-23.9941406h48.0058594v-72H0v-23.9941406h72V1331.9472656z"/>
	<path class="st0" d="M72,1199.953125c0,3.3164063-1.171875,6.140625-3.515625,8.4726563
		c-2.34375,2.34375-5.1679688,3.515625-8.4726563,3.515625H0v-23.9941406h48.0058594v-95.9941406H72V1199.953125z"/>
	<path class="st0" d="M72,1079.9472656H24.0117188v95.9941406H0v-108c0-3.3164063,1.1777344-6.140625,3.5332031-8.4726563
		c2.34375-2.34375,5.1679688-3.515625,8.4726563-3.515625H72V1079.9472656z"/>
	<path class="st0" d="M72,1043.9472656H12.0058594c-3.3046875,0-6.1289063-1.171875-8.4726563-3.515625
		C1.1777344,1038.0996094,0,1035.2753906,0,1031.9589844v-108h24.0117188v95.9941406H72V1043.9472656z"/>
	<path class="st0" d="M72,911.953125H0v-108c0-3.3164063,1.1777344-6.140625,3.5332031-8.4726563
		c2.34375-2.34375,5.1679688-3.515625,8.4726563-3.515625H72v23.9941406H60.0117188v72H72V911.953125z M36,815.9589844H24.0117188
		v72H36V815.9589844z"/>
	<path class="st0" d="M72,779.9589844H0v-23.9941406h24.0117188v-72H0v-23.9941406h72v23.9941406H48.0058594v72H72V779.9589844z"/>
	<path class="st0" d="M72,635.9765625c0,3.3164063-1.171875,6.140625-3.515625,8.4726563
		c-2.34375,2.34375-5.1679688,3.515625-8.4726563,3.515625H0v-23.9941406h48.0058594v-72H0v-23.9941406h72V635.9765625z"/>
	<path class="st0" d="M72,515.9707031H12.0058594c-3.3046875,0-6.1289063-1.171875-8.4726563-3.515625
		C1.1777344,510.1230469,0,507.2988281,0,503.9824219v-108h24.0117188v47.9882813H72v24.0117188H24.0117188v23.9941406H72
		V515.9707031z"/>
	<path class="st0" d="M72,383.9765625H0v-108c0-3.3164063,1.1777344-6.140625,3.5332031-8.4726563
		c2.34375-2.34375,5.1679688-3.515625,8.4726563-3.515625H72v23.9941406H60.0117188v72H72V383.9765625z M36,287.9824219H24.0117188
		v72H36V287.9824219z"/>
	<path class="st0" d="M72,251.9824219H12.0058594c-3.3046875,0-6.1289063-1.171875-8.4726563-3.515625
		C1.1777344,246.1347656,0,243.3105469,0,239.9941406v-108h72v23.9941406H24.0117188v72H72V251.9824219z"/>
	<path class="st0" d="M72,108c0,3.3164063-1.171875,6.140625-3.515625,8.4726563
		c-2.34375,2.34375-5.1679688,3.515625-8.4726563,3.515625H0v-108C0,8.671875,1.1777344,5.8476563,3.5332031,3.515625
		C5.8769531,1.171875,8.7011719,0,12.0058594,0H72V108z M48.0058594,23.9941406H24.0117188v72h23.9941406V23.9941406z"/>
</g>
</svg>
