<?xml version="1.0" encoding="utf-8"?>
<!-- Generator: Adobe Illustrator 23.0.1, SVG Export Plug-In . SVG Version: 6.00 Build 0)  -->
<svg version="1.1" id="Layer_1" xmlns="http://www.w3.org/2000/svg" xmlns:xlink="http://www.w3.org/1999/xlink" x="0px" y="0px"
	 viewBox="0 0 349.4737549 83.8669434" style="enable-background:new 0 0 349.4737549 83.8669434;" xml:space="preserve">
<style type="text/css">
	.st0{fill:#B00000;}
</style>
<g>
	<path class="st0" d="M10,32.5190773c-5.5228271,0-10-4.4771118-10-10l0-22.519043l60.8661499,0c5.5228882,0,10,4.4771729,10,10
		v22.519043H10z"/>
	<path class="st0" d="M203.6028748,41.8668213h-57.7319336h-0.000061V0H85.0047226c-5.5228882,0-10,4.4771729-10,10v22.519043
		h28.8660278v11.3479004c0,22.0914307,17.9085693,40,40.0000076,40h61.7322388c22.0914307,0,40-17.9085693,40-40V32.519043
		h28.8660278V10c0-5.5228271-4.4771118-10-10-10h-60.8661499V41.8668213z"/>
	<path class="st0" d="M339.4737549,32.5190773c5.5228271,0,10-4.4771118,10-10V0.0000353H288.607605
		c-5.5228882,0-10,4.4771729-10,10v22.519043H339.4737549z"/>
</g>
</svg>
