<svg id="Layer_1" data-name="Layer 1" xmlns="http://www.w3.org/2000/svg" viewBox="0 0 239.64019 239.53427"><defs><style>.cls-1{fill:#FFF;}</style></defs><title>uh_search_new</title><path class="cls-1" d="M181.70651,31.18533a106.604,106.604,0,0,0-150.62939-.05479c-41.54388,41.5439-41.38211,108.97849.1618,150.52237a106.49333,106.49333,0,0,0,134.23279,13.41144l38.07434,38.07431a21.00278,21.00278,0,1,0,30.18256-29.21439q-.238-.246-.48407-.4841L195.1702,165.36589A106.4283,106.4283,0,0,0,181.70651,31.18533Zm-28.175,122.29a66.55528,66.55528,0,1,1-.02393-94.12338.0229.0229,0,0,0,.02429.00809A66.60738,66.60738,0,0,1,153.53152,153.47533Z" transform="translate(0.00002 0.00001)"/></svg>