<?xml version="1.0" encoding="utf-8"?>
<!-- Generator: Adobe Illustrator 17.0.0, SVG Export Plug-In . SVG Version: 6.00 Build 0)  -->
<!DOCTYPE svg PUBLIC "-//W3C//DTD SVG 1.1//EN" "http://www.w3.org/Graphics/SVG/1.1/DTD/svg11.dtd">
<svg version="1.1" id="Layer_1" xmlns="http://www.w3.org/2000/svg" xmlns:xlink="http://www.w3.org/1999/xlink" x="0px" y="0px"
	 width="612px" height="792px" viewBox="0 0 612 792" enable-background="new 0 0 612 792" xml:space="preserve">
<path fill="none" d="M396.879,286.978c0.189,0.002,0.371,0.013,0.548,0.032C397.25,286.992,397.068,286.981,396.879,286.978z"/>
<path fill="none" d="M397.609,287.032c0.205,0.029,0.404,0.066,0.591,0.118C398.013,287.098,397.814,287.061,397.609,287.032z"/>
<path fill="none" d="M395.184,287.153c0.217-0.044,0.428-0.08,0.634-0.107C395.612,287.073,395.401,287.109,395.184,287.153z"/>
<path fill="none" d="M395.995,287.021c0.254-0.028,0.499-0.043,0.735-0.046C396.494,286.977,396.249,286.993,395.995,287.021z"/>
<path fill="none" d="M394.101,287.428c0.292-0.091,0.574-0.163,0.851-0.226C394.675,287.265,394.394,287.337,394.101,287.428z"/>
<path fill="none" d="M398.677,287.311c-0.144-0.06-0.295-0.111-0.453-0.156c0.182,0.051,0.35,0.118,0.514,0.19
	C398.716,287.335,398.699,287.32,398.677,287.311z"/>
<path fill="none" d="M400.3,288.766c0.038,0.069,0.075,0.138,0.108,0.21C400.375,288.903,400.338,288.834,400.3,288.766z"/>
<path fill="none" d="M400.608,289.525c0.016,0.056,0.038,0.108,0.051,0.165C400.646,289.633,400.624,289.582,400.608,289.525z"/>
<path fill="none" d="M399.374,287.696c0.008,0.006,0.014,0.013,0.022,0.019C399.388,287.71,399.382,287.702,399.374,287.696z"/>
<path fill="none" d="M379.702,291.82c0.09-0.016,0.179-0.03,0.27-0.05C379.882,291.79,379.792,291.804,379.702,291.82z"/>
<path fill="none" d="M399.89,288.172c0.048,0.054,0.089,0.113,0.133,0.17C399.979,288.285,399.938,288.225,399.89,288.172z"/>
<path fill="none" d="M377.95,291.968c0.07,0.002,0.142-0.003,0.213-0.003C378.092,291.966,378.02,291.97,377.95,291.968z"/>
<path fill="none" d="M372.84,289.771c0.172,0.179,0.35,0.351,0.538,0.51C373.19,290.122,373.012,289.95,372.84,289.771z"/>
<path fill="none" d="M372.094,288.866c0.184,0.267,0.383,0.52,0.596,0.756C372.477,289.386,372.278,289.133,372.094,288.866z"/>
<path fill="none" d="M370.876,285.985c0.054,0.245,0.114,0.484,0.186,0.717C370.99,286.47,370.93,286.23,370.876,285.985z"/>
<path fill="none" d="M371.591,288.012c0.113,0.221,0.238,0.432,0.369,0.637C371.829,288.444,371.704,288.233,371.591,288.012z"/>
<path fill="none" d="M350.277,277.148c0.301-0.208,0.598-0.434,0.887-0.687C350.875,276.714,350.578,276.939,350.277,277.148z"/>
<path fill="none" d="M367.088,265.589c0.37,0.153,0.711,0.378,1.016,0.671C367.798,265.967,367.458,265.742,367.088,265.589z"/>
<path fill="none" d="M373.636,290.482c0.167,0.128,0.338,0.249,0.516,0.362C373.974,290.731,373.802,290.61,373.636,290.482z"/>
<path fill="none" d="M400.776,290.499c0.004,0.068,0,0.141,0.001,0.211C400.775,290.64,400.78,290.566,400.776,290.499z"/>
<path fill="none" d="M378.799,291.94c0.095-0.008,0.191-0.018,0.288-0.029C378.99,291.922,378.894,291.933,378.799,291.94z"/>
<path fill="none" d="M376.964,291.882c0.058,0.009,0.114,0.021,0.172,0.028C377.078,291.903,377.022,291.89,376.964,291.882z"/>
<path fill="none" d="M374.445,291.021c0.187,0.106,0.379,0.201,0.576,0.289C374.825,291.221,374.632,291.126,374.445,291.021z"/>
<path fill="none" d="M376.096,291.7c0.083,0.023,0.166,0.045,0.251,0.065C376.262,291.745,376.179,291.723,376.096,291.7z"/>
<path fill="none" d="M419.03,320.123c0.123,0.079,0.238,0.161,0.348,0.246C419.268,320.284,419.152,320.201,419.03,320.123z"/>
<path fill="none" d="M400.755,291.406c-0.009,0.104-0.023,0.211-0.037,0.318C400.733,291.617,400.746,291.511,400.755,291.406z"/>
<path fill="none" d="M398.175,316.14c0.085,0.054,0.173,0.103,0.261,0.154C398.348,316.244,398.26,316.194,398.175,316.14z"/>
<path fill="none" d="M399.576,316.834c0.25,0.097,0.509,0.182,0.776,0.258C400.085,317.016,399.826,316.93,399.576,316.834z"/>
<path fill="none" d="M400.683,317.184c0.376,0.091,0.762,0.168,1.167,0.216C401.445,317.352,401.059,317.275,400.683,317.184z"/>
<path fill="none" d="M420.732,322.647c0.015,0.125,0.021,0.253,0.022,0.382C420.753,322.9,420.747,322.772,420.732,322.647z"/>
<path fill="none" d="M418.109,319.639c-0.048-0.02-0.109-0.032-0.158-0.051c0.076,0.03,0.159,0.055,0.233,0.087
	C418.158,319.663,418.136,319.65,418.109,319.639z"/>
<path fill="none" d="M349.349,277.707c0.214-0.113,0.425-0.24,0.636-0.374C349.774,277.468,349.563,277.594,349.349,277.707z"/>
<path fill="none" d="M420.366,321.499c0.072,0.131,0.136,0.264,0.188,0.402C420.502,321.763,420.438,321.63,420.366,321.499z"/>
<path fill="none" d="M420.612,322.083c0.036,0.118,0.067,0.238,0.09,0.361C420.679,322.32,420.648,322.201,420.612,322.083z"/>
<path fill="none" d="M419.553,320.508c0.115,0.099,0.22,0.204,0.319,0.311C419.773,320.712,419.668,320.608,419.553,320.508z"/>
<path fill="none" d="M419.981,320.933c0.126,0.149,0.238,0.303,0.334,0.465C420.219,321.236,420.107,321.081,419.981,320.933z"/>
<path fill="none" d="M416.819,319.241c0.105,0.024,0.206,0.052,0.307,0.079C417.025,319.293,416.924,319.266,416.819,319.241z"/>
<path fill="none" d="M394.917,308.621c-0.018,0.109-0.031,0.216-0.045,0.324C394.886,308.838,394.9,308.73,394.917,308.621z"/>
<path fill="none" d="M394.822,309.498c-0.006,0.106-0.012,0.212-0.014,0.317C394.809,309.71,394.815,309.604,394.822,309.498z"/>
<path fill="none" d="M395.104,307.738c-0.026,0.096-0.044,0.191-0.066,0.287C395.06,307.929,395.078,307.834,395.104,307.738z"/>
<path fill="none" d="M397.509,315.672c0.063,0.05,0.13,0.094,0.195,0.142C397.639,315.766,397.571,315.722,397.509,315.672z"/>
<path fill="none" d="M400.591,292.437c-0.023,0.106-0.043,0.21-0.071,0.318C400.548,292.646,400.568,292.542,400.591,292.437z"/>
<path fill="none" d="M394.818,310.38c0.005,0.091,0.006,0.182,0.013,0.272C394.824,310.562,394.823,310.47,394.818,310.38z"/>
<path fill="none" d="M396.228,314.35c0.053,0.071,0.103,0.143,0.159,0.212C396.331,314.493,396.281,314.421,396.228,314.35z"/>
<path fill="none" d="M396.837,315.065c0.026,0.026,0.048,0.055,0.075,0.081C396.885,315.12,396.863,315.091,396.837,315.065z"/>
<path fill="none" d="M395.139,312.229c0.024,0.077,0.055,0.152,0.081,0.228C395.193,312.38,395.163,312.306,395.139,312.229z"/>
<path fill="none" d="M394.931,311.393c0.004,0.021,0.005,0.042,0.009,0.063C394.937,311.436,394.935,311.414,394.931,311.393z"/>
<path fill="none" d="M395.778,313.673c0.049,0.084,0.098,0.167,0.15,0.249C395.876,313.84,395.827,313.757,395.778,313.673z"/>
<path fill="none" d="M418.393,319.773c0.148,0.07,0.292,0.143,0.427,0.221C418.686,319.916,418.542,319.843,418.393,319.773z"/>
<path fill="none" d="M287.088,271.684c0.023-0.195,0.05-0.386,0.084-0.569C287.139,271.298,287.112,271.488,287.088,271.684z"/>
<path fill="none" d="M310.956,279.542c0.039,0,0.078-0.004,0.117-0.005C311.034,279.538,310.995,279.543,310.956,279.542z"/>
<path fill="none" d="M287.006,272.866c0.004-0.318,0.023-0.619,0.05-0.911C287.028,272.246,287.01,272.548,287.006,272.866z"/>
<path fill="none" d="M309.923,279.455c0.08,0.012,0.16,0.028,0.24,0.038C310.083,279.483,310.003,279.466,309.923,279.455z"/>
<path fill="none" d="M287.231,270.83c0.037-0.169,0.08-0.332,0.126-0.489C287.311,270.498,287.269,270.661,287.231,270.83z"/>
<path fill="none" d="M309.066,279.276c0.098,0.026,0.196,0.054,0.294,0.076C309.263,279.33,309.165,279.302,309.066,279.276z"/>
<path fill="none" d="M347.334,278.45c0.239-0.052,0.477-0.113,0.714-0.19C347.811,278.336,347.572,278.397,347.334,278.45z"/>
<path fill="none" d="M307.148,278.485c0.242,0.135,0.486,0.258,0.731,0.366C307.634,278.743,307.39,278.62,307.148,278.485z"/>
<path fill="none" d="M314.958,278.327c0.02-0.013,0.038-0.029,0.058-0.043C314.996,278.298,314.978,278.314,314.958,278.327z"/>
<path fill="none" d="M315.605,277.835c0.069-0.058,0.135-0.122,0.202-0.183C315.74,277.713,315.674,277.777,315.605,277.835z"/>
<path fill="none" d="M314.052,278.838c0.074-0.036,0.149-0.067,0.222-0.105C314.201,278.771,314.126,278.803,314.052,278.838z"/>
<path fill="none" d="M312.515,279.372c0.096-0.021,0.191-0.046,0.287-0.071C312.707,279.327,312.611,279.351,312.515,279.372z"/>
<path fill="none" d="M288.073,268.791c0.098-0.141,0.201-0.273,0.311-0.395C288.274,268.517,288.171,268.65,288.073,268.791z"/>
<path fill="none" d="M291.374,267.349c0.14,0.018,0.281,0.042,0.426,0.073C291.655,267.39,291.514,267.366,291.374,267.349z"/>
<path fill="none" d="M288.972,267.882c0.105-0.072,0.214-0.137,0.325-0.196C289.186,267.745,289.077,267.809,288.972,267.882z"/>
<path fill="none" d="M292.035,267.478c0.151,0.04,0.305,0.091,0.46,0.146C292.34,267.569,292.187,267.519,292.035,267.478z"/>
<path fill="none" d="M290.702,267.318c0.149-0.006,0.3-0.006,0.455,0.006C291.002,267.313,290.851,267.312,290.702,267.318z"/>
<path fill="none" d="M287.434,270.09c0.057-0.168,0.12-0.326,0.187-0.48C287.554,269.764,287.49,269.922,287.434,270.09z"/>
<path fill="none" d="M289.46,267.602c0.138-0.063,0.282-0.114,0.429-0.156C289.742,267.489,289.598,267.539,289.46,267.602z"/>
<path fill="none" d="M293.713,268.201c0.09,0.052,0.18,0.103,0.271,0.16C293.892,268.304,293.803,268.253,293.713,268.201z"/>
<path fill="none" d="M288.519,268.261c0.094-0.093,0.191-0.181,0.292-0.261C288.71,268.08,288.613,268.168,288.519,268.261z"/>
<path fill="none" d="M287.693,269.44c0.097-0.202,0.202-0.392,0.317-0.566C287.895,269.048,287.79,269.237,287.693,269.44z"/>
<path fill="none" d="M316.214,277.26c0.072-0.075,0.143-0.154,0.213-0.233C316.357,277.106,316.287,277.185,316.214,277.26z"/>
<path fill="none" d="M292.791,267.73c-0.026-0.011-0.052-0.017-0.078-0.028c0.074,0.03,0.151,0.07,0.226,0.103
	C292.89,267.784,292.839,267.75,292.791,267.73z"/>
<path fill="none" d="M311.74,279.501c0.089-0.009,0.178-0.025,0.266-0.038C311.918,279.475,311.83,279.491,311.74,279.501z"/>
<path fill="none" d="M340.607,276.411c0.049,0.049,0.096,0.102,0.146,0.15C340.703,276.513,340.656,276.46,340.607,276.411z"/>
<path fill="none" d="M339.991,275.718c0.06,0.075,0.12,0.15,0.182,0.222C340.111,275.868,340.051,275.793,339.991,275.718z"/>
<path fill="none" d="M341.371,277.095c0.046,0.036,0.094,0.066,0.14,0.101C341.464,277.161,341.416,277.131,341.371,277.095z"/>
<path fill="none" d="M331.6,260.446c0.127,0.165,0.251,0.34,0.373,0.525C331.851,260.786,331.727,260.611,331.6,260.446z"/>
<path fill="none" d="M331.006,259.752c0.165,0.168,0.327,0.352,0.486,0.551C331.333,260.104,331.171,259.92,331.006,259.752z"/>
<path fill="none" d="M339.463,274.991c0.05,0.078,0.104,0.151,0.156,0.226C339.567,275.142,339.514,275.068,339.463,274.991z"/>
<path fill="none" d="M342.031,277.551c0.074,0.046,0.149,0.088,0.224,0.132C342.18,277.64,342.105,277.597,342.031,277.551z"/>
<path fill="none" d="M346.131,278.621c0.318-0.016,0.638-0.054,0.958-0.113C346.769,278.567,346.45,278.605,346.131,278.621z"/>
<path fill="none" d="M345.179,278.6c0.247,0.021,0.495,0.025,0.745,0.02C345.675,278.626,345.426,278.621,345.179,278.6z"/>
<path fill="none" d="M343.29,278.166c0.202,0.076,0.405,0.145,0.612,0.203C343.695,278.312,343.492,278.243,343.29,278.166z"/>
<path fill="none" d="M344.235,278.452c0.206,0.046,0.413,0.081,0.622,0.109C344.648,278.533,344.44,278.498,344.235,278.452z"/>
<path fill="none" d="M324.238,261.157c0.057-0.096,0.116-0.183,0.174-0.274C324.354,260.974,324.295,261.061,324.238,261.157z"/>
<path fill="none" d="M325.501,259.531c0.051-0.049,0.1-0.105,0.152-0.15C325.602,259.427,325.552,259.482,325.501,259.531z"/>
<path fill="none" d="M324.826,260.288c0.066-0.086,0.132-0.171,0.199-0.251C324.958,260.118,324.892,260.203,324.826,260.288z"/>
<path fill="none" d="M326.305,258.893c0.052-0.032,0.106-0.054,0.158-0.083C326.411,258.839,326.357,258.861,326.305,258.893z"/>
<path fill="none" d="M316.784,276.599c0.066-0.085,0.132-0.17,0.196-0.258C316.916,276.429,316.85,276.514,316.784,276.599z"/>
<path fill="none" d="M317.319,275.828c0.051-0.082,0.105-0.16,0.154-0.245C317.424,275.668,317.37,275.746,317.319,275.828z"/>
<path fill="none" d="M328.593,258.389c0.011,0.002,0.022,0,0.033,0.002C328.615,258.389,328.604,258.391,328.593,258.389z"/>
<path fill="none" d="M329.391,258.612c-0.023-0.009-0.045-0.011-0.068-0.02c0.167,0.065,0.333,0.137,0.498,0.229
	C329.679,258.741,329.535,258.671,329.391,258.612z"/>
<path fill="none" d="M329.843,258.836c0.168,0.096,0.334,0.209,0.499,0.333C330.177,259.045,330.011,258.931,329.843,258.836z"/>
<path fill="none" d="M326.987,258.565c0.076-0.028,0.152-0.051,0.229-0.073C327.14,258.514,327.064,258.537,326.987,258.565z"/>
<path fill="none" d="M327.707,258.389c0.073-0.009,0.145-0.022,0.218-0.027C327.853,258.367,327.78,258.38,327.707,258.389z"/>
<path fill="none" d="M330.489,259.284c0.137,0.111,0.272,0.231,0.406,0.361C330.761,259.515,330.625,259.395,330.489,259.284z"/>
<polygon fill="none" points="395.383,306.846 395.381,306.853 395.383,306.846 400.184,293.842 400.186,293.837 400.184,293.842 "/>
<path fill="none" d="M420.105,325.327c-0.079,0.144-0.164,0.289-0.257,0.435C419.941,325.616,420.027,325.471,420.105,325.327z"/>
<path fill="none" d="M406.429,343.007c0.006,0.563,0.079,1.121,0.219,1.666C406.509,344.128,406.435,343.57,406.429,343.007z"/>
<path fill="none" d="M308.552,279.12c-0.101-0.034-0.201-0.07-0.301-0.109C308.351,279.05,308.451,279.085,308.552,279.12z"/>
<path fill="none" d="M349.009,277.875c-0.208,0.098-0.416,0.185-0.626,0.264C348.592,278.06,348.801,277.973,349.009,277.875z"/>
<path fill="none" d="M342.967,278.043c-0.076-0.033-0.15-0.07-0.225-0.106C342.817,277.973,342.891,278.01,342.967,278.043z"/>
<path fill="none" d="M399.201,316.684c-0.098-0.044-0.195-0.089-0.29-0.136C399.006,316.595,399.102,316.64,399.201,316.684z"/>
<path fill="none" d="M395.541,313.227c-0.042-0.086-0.084-0.171-0.123-0.259C395.456,313.056,395.499,313.141,395.541,313.227z"/>
<path fill="none" d="M289.985,267.414c0.183-0.047,0.373-0.077,0.569-0.093C290.358,267.337,290.168,267.368,289.985,267.414z"/>
<rect x="351.157" y="333.642" fill="none" width="0" height="4.987"/>
<path fill="none" d="M375.571,291.536c-0.078-0.028-0.157-0.054-0.234-0.084C375.414,291.482,375.492,291.508,375.571,291.536z"/>
<path fill="none" d="M371.44,287.69c-0.093-0.204-0.179-0.414-0.257-0.63C371.261,287.276,371.347,287.486,371.44,287.69z"/>
<path fill="none" d="M369.756,270.699l0.903,13.832c0.025,0.386,0.076,0.757,0.142,1.119c-0.066-0.362-0.117-0.733-0.142-1.119
	L369.756,270.699c-0.134-2.058-0.735-3.559-1.652-4.439C369.021,267.14,369.622,268.641,369.756,270.699z"/>
<path fill="none" d="M419.689,326.004c-0.106,0.153-0.222,0.308-0.343,0.462C419.467,326.312,419.583,326.158,419.689,326.004z"/>
<path fill="none" d="M313.554,279.058c-0.09,0.035-0.182,0.066-0.274,0.098C313.372,279.124,313.464,279.093,313.554,279.058z"/>
<path fill="none" d="M420.434,324.626c-0.061,0.155-0.127,0.311-0.206,0.469C420.307,324.937,420.373,324.781,420.434,324.626z"/>
<path fill="none" d="M422.424,356.645l-11.915-7.085c-2.068-1.23-3.371-2.979-3.86-4.887c0.49,1.908,1.792,3.657,3.86,4.887
	L422.424,356.645c4.727,2.811,4.415,6.777-0.694,8.814l-10.527,4.197h0l10.527-4.197
	C426.839,363.422,427.151,359.456,422.424,356.645z"/>
<path fill="none" d="M420.681,323.829c-0.042,0.204-0.101,0.412-0.176,0.623C420.579,324.241,420.639,324.033,420.681,323.829z"/>
<path fill="none" d="M338.997,274.202l-6.451-12.269c-0.143-0.272-0.292-0.524-0.444-0.765c0.152,0.241,0.301,0.493,0.444,0.765
	L338.997,274.202z"/>
<path fill="none" d="M408.893,337.288c-1.68,1.723-2.485,3.75-2.464,5.719C406.408,341.037,407.214,339.011,408.893,337.288
	l9.675-9.927c0.222-0.227,0.422-0.454,0.609-0.68c-0.187,0.226-0.388,0.452-0.609,0.68L408.893,337.288z"/>
<path fill="none" d="M420.754,323.228c-0.008,0.16-0.028,0.323-0.058,0.489C420.726,323.551,420.746,323.388,420.754,323.228z"/>
<path fill="none" d="M306.849,278.316c-0.331-0.201-0.658-0.42-0.979-0.673l-10.884-8.584l10.884,8.584
	C306.19,277.896,306.518,278.115,306.849,278.316z"/>
<path d="M239.341,369.946c0.23,0.095,0.469,0.185,0.721,0.271c-0.29-0.098-0.56-0.206-0.821-0.317
	C239.276,369.914,239.306,369.931,239.341,369.946z"/>
<path d="M257.157,377.369c-0.082-0.102-0.167-0.202-0.255-0.301C256.99,377.167,257.075,377.267,257.157,377.369z"/>
<path d="M258.296,384.264c-0.038,0.114-0.068,0.229-0.111,0.343C258.229,384.493,258.259,384.379,258.296,384.264z"/>
<path d="M255.932,376.151c-0.109-0.087-0.219-0.171-0.334-0.253C255.713,375.979,255.823,376.064,255.932,376.151z"/>
<path d="M271.782,404.659c0.18,0.055,0.356,0.114,0.529,0.18C272.138,404.773,271.961,404.714,271.782,404.659z"/>
<path d="M257.642,378.054c-0.068-0.109-0.14-0.215-0.214-0.321C257.501,377.838,257.574,377.945,257.642,378.054z"/>
<path d="M255.194,375.628c-0.121-0.077-0.243-0.152-0.37-0.224C254.951,375.476,255.073,375.551,255.194,375.628z"/>
<path d="M276.127,408.274c0.134,0.265,0.252,0.541,0.355,0.826C276.379,408.814,276.261,408.539,276.127,408.274z"/>
<path d="M386.814,430.314c-0.12,0.01-0.244,0.014-0.369,0.015C386.57,430.328,386.694,430.324,386.814,430.314z"/>
<path d="M254.542,405.598c-0.002,0-0.004,0-0.006,0C254.538,405.598,254.54,405.598,254.542,405.598l13.804-1.272
	c0.364-0.034,0.72-0.044,1.069-0.038c-0.349-0.006-0.705,0.005-1.069,0.038L254.542,405.598z"/>
<path d="M256.586,376.733c-0.095-0.095-0.193-0.188-0.295-0.279C256.393,376.545,256.491,376.638,256.586,376.733z"/>
<path d="M258.214,379.195c0.046,0.117,0.092,0.233,0.132,0.352C258.306,379.428,258.26,379.312,258.214,379.195z"/>
<path d="M238.872,369.727c-0.148-0.071-0.297-0.141-0.435-0.216C238.575,369.586,238.723,369.656,238.872,369.727z"/>
<path d="M258.461,383.736c0.031-0.122,0.051-0.243,0.076-0.365C258.512,383.493,258.492,383.614,258.461,383.736z"/>
<path d="M249.19,399.438c0.041-0.093,0.083-0.187,0.129-0.282C249.273,399.252,249.231,399.345,249.19,399.438z"/>
<path d="M367.923,422.424c-0.14-0.023-0.278-0.041-0.417-0.057C367.645,422.383,367.784,422.401,367.923,422.424z"/>
<path d="M368.82,422.622c-0.141-0.039-0.281-0.072-0.421-0.104C368.538,422.55,368.679,422.583,368.82,422.622z"/>
<path d="M257.807,385.476c0.047-0.095,0.082-0.19,0.126-0.286C257.889,385.286,257.854,385.381,257.807,385.476z"/>
<path d="M248.61,401.652c0.004-0.076,0.007-0.15,0.015-0.228C248.617,401.502,248.614,401.576,248.61,401.652z"/>
<path d="M367.041,422.327c-0.138-0.007-0.274-0.011-0.41-0.011C366.767,422.316,366.903,422.32,367.041,422.327z"/>
<path d="M258.039,378.782c-0.054-0.114-0.113-0.226-0.173-0.338C257.925,378.555,257.985,378.667,258.039,378.782z"/>
<path d="M248.805,400.477c0.013-0.046,0.033-0.094,0.047-0.14C248.838,400.383,248.817,400.431,248.805,400.477z"/>
<path d="M258.561,380.344c-0.025-0.123-0.058-0.242-0.09-0.363C258.502,380.101,258.535,380.221,258.561,380.344z"/>
<path d="M258.634,382.869c0.018-0.125,0.025-0.249,0.036-0.374C258.658,382.62,258.652,382.744,258.634,382.869z"/>
<path d="M258.682,381.167c-0.011-0.125-0.031-0.247-0.048-0.371C258.651,380.92,258.671,381.042,258.682,381.167z"/>
<path d="M385.371,430.233c-0.14-0.026-0.285-0.061-0.431-0.096C385.086,430.173,385.23,430.208,385.371,430.233z"/>
<path d="M253.97,374.978c0.139,0.061,0.273,0.127,0.407,0.193C254.243,375.104,254.109,375.039,253.97,374.978z"/>
<path d="M383.626,429.711c0.035,0.015,0.068,0.024,0.103,0.038c-0.263-0.106-0.53-0.221-0.804-0.356
	C383.163,429.509,383.397,429.616,383.626,429.711z"/>
<path d="M384.574,430.043c-0.151-0.045-0.306-0.1-0.461-0.155C384.268,429.943,384.423,429.998,384.574,430.043z"/>
<path d="M258.707,382.01c0.004-0.126-0.003-0.249-0.006-0.374C258.704,381.761,258.71,381.885,258.707,382.01z"/>
<path d="M386.119,430.323c-0.13-0.007-0.264-0.023-0.399-0.04C385.855,430.3,385.988,430.316,386.119,430.323z"/>
<path d="M390.109,425.258c0.016,0.2,0.034,0.401,0.037,0.59C390.143,425.659,390.126,425.458,390.109,425.258z"/>
<path d="M238.129,362.019c0.241-0.192,0.5-0.382,0.779-0.568C238.629,361.637,238.37,361.827,238.129,362.019z"/>
<path d="M359.934,426.754c0.052-0.114,0.113-0.219,0.168-0.329C360.046,426.535,359.986,426.639,359.934,426.754z"/>
<path d="M356.266,442.108c0,0.001-0.001,0.002-0.001,0.003C356.265,442.11,356.266,442.109,356.266,442.108l3.056-13.521
	c0.002-0.01,0.006-0.019,0.008-0.029c-0.002,0.01-0.006,0.019-0.008,0.029L356.266,442.108z"/>
<path d="M363.396,423.063c0.115-0.058,0.233-0.109,0.352-0.16C363.629,422.955,363.511,423.005,363.396,423.063z"/>
<path d="M390.137,426.171c-0.004,0.166-0.006,0.334-0.021,0.491C390.131,426.504,390.133,426.337,390.137,426.171z"/>
<path d="M335.64,431.071c0.169,0.075,0.335,0.158,0.501,0.246C335.975,431.23,335.809,431.146,335.64,431.071z"/>
<path d="M236.909,363.199c0.099-0.119,0.214-0.237,0.326-0.355C237.123,362.963,237.008,363.08,236.909,363.199z"/>
<path d="M390.072,426.974c-0.021,0.144-0.04,0.29-0.07,0.426C390.032,427.264,390.051,427.119,390.072,426.974z"/>
<path d="M237.463,362.603c0.133-0.129,0.285-0.255,0.434-0.382C237.747,362.348,237.596,362.475,237.463,362.603z"/>
<path d="M403.989,375.607c-0.398,1.344-0.392,2.809,0.056,4.266C403.597,378.416,403.591,376.951,403.989,375.607z"/>
<path d="M238.108,369.317c-0.127-0.077-0.253-0.154-0.369-0.234C237.856,369.163,237.982,369.24,238.108,369.317z"/>
<path d="M236.468,363.802c0.073-0.114,0.16-0.228,0.245-0.342C236.629,363.574,236.541,363.688,236.468,363.802z"/>
<path d="M414.483,399.43c0.765-1.408,0.445-3.405-1.142-5.651l-8.003-11.318l8.003,11.318
	C414.929,396.025,415.248,398.022,414.483,399.43z"/>
<path d="M414.146,399.93c-0.258,0.314-0.583,0.589-0.971,0.818C413.564,400.519,413.888,400.244,414.146,399.93z"/>
<path d="M369.3,422.773c0.141,0.048,0.283,0.096,0.424,0.152C369.582,422.869,369.441,422.821,369.3,422.773z"/>
<path d="M387.232,410.415l2.708,13.595c0.066,0.329,0.114,0.647,0.149,0.954c-0.035-0.307-0.083-0.624-0.149-0.954L387.232,410.415
	c-1.074-5.394,2.543-9.63,8.039-9.412l13.851,0.547l-13.851-0.547C389.775,400.785,386.158,405.021,387.232,410.415z"/>
<path d="M411.825,401.298c0.512-0.135,0.963-0.32,1.351-0.55C412.788,400.978,412.336,401.163,411.825,401.298z"/>
<path d="M408.854,370.593c-2.554,1.018-4.227,2.863-4.864,5.014C404.627,373.456,406.299,371.611,408.854,370.593l2.35-0.937h0
	L408.854,370.593z"/>
<path d="M294.253,425.255l-12.093,6.776c-0.281,0.158-0.556,0.295-0.827,0.419c0.27-0.124,0.545-0.261,0.827-0.419L294.253,425.255
	c1.5-0.84,3.033-1.21,4.478-1.159C297.286,424.045,295.752,424.414,294.253,425.255z"/>
<path d="M298.731,424.096c0.867,0.03,1.703,0.212,2.48,0.534C300.433,424.308,299.598,424.126,298.731,424.096z"/>
<path d="M236.472,367.876c-0.067-0.093-0.13-0.186-0.188-0.281C236.342,367.69,236.405,367.784,236.472,367.876z"/>
<path d="M235.924,366.779c-0.029-0.1-0.051-0.201-0.07-0.302C235.873,366.578,235.895,366.679,235.924,366.779z"/>
<path d="M389.921,427.693c-0.036,0.125-0.071,0.252-0.115,0.369C389.85,427.944,389.885,427.818,389.921,427.693z"/>
<path d="M388.55,429.721c-0.087,0.06-0.177,0.118-0.271,0.169C388.373,429.838,388.463,429.781,388.55,429.721z"/>
<path d="M237.454,368.869c-0.106-0.083-0.211-0.166-0.307-0.252C237.243,368.704,237.348,368.787,237.454,368.869z"/>
<path d="M236.91,368.388c-0.087-0.088-0.171-0.177-0.248-0.268C236.739,368.211,236.823,368.3,236.91,368.388z"/>
<path d="M387.453,430.209c-0.11,0.027-0.223,0.049-0.338,0.067C387.231,430.258,387.344,430.236,387.453,430.209z"/>
<path d="M388.033,430.01c-0.099,0.044-0.201,0.084-0.306,0.119C387.833,430.094,387.934,430.055,388.033,430.01z"/>
<path d="M236.143,367.338c-0.048-0.096-0.091-0.194-0.128-0.292C236.053,367.144,236.095,367.242,236.143,367.338z"/>
<path d="M389.69,428.326c-0.05,0.109-0.099,0.218-0.157,0.318C389.59,428.544,389.64,428.435,389.69,428.326z"/>
<path d="M235.92,365.012c0.03-0.108,0.07-0.217,0.11-0.326C235.99,364.795,235.949,364.904,235.92,365.012z"/>
<path d="M389.001,429.342c-0.076,0.077-0.153,0.151-0.235,0.219C388.848,429.493,388.925,429.418,389.001,429.342z"/>
<path d="M236.139,364.408c0.05-0.111,0.114-0.222,0.175-0.333C236.252,364.186,236.189,364.297,236.139,364.408z"/>
<path d="M329.675,431.135c0.277-0.13,0.557-0.242,0.842-0.335C330.232,430.893,329.952,431.005,329.675,431.135z"/>
<path d="M235.813,366.202c-0.01-0.103-0.011-0.207-0.011-0.311C235.801,365.995,235.803,366.099,235.813,366.202z"/>
<path d="M389.382,428.876c-0.063,0.093-0.127,0.185-0.197,0.269C389.255,429.061,389.319,428.969,389.382,428.876z"/>
<path d="M318.142,444.945c-0.002,0.003-0.004,0.005-0.006,0.008C318.138,444.95,318.14,444.948,318.142,444.945l8.291-11.109
	c0.264-0.354,0.548-0.671,0.84-0.97c-0.292,0.299-0.576,0.616-0.84,0.97L318.142,444.945z"/>
<path d="M235.811,365.612c0.01-0.106,0.029-0.212,0.049-0.319C235.84,365.4,235.821,365.506,235.811,365.612z"/>
<path d="M309.736,444.214c-0.102-0.276-0.199-0.565-0.285-0.872C309.538,443.649,309.634,443.937,309.736,444.214z"/>
<rect x="351.157" y="338.629" width="0" height="25.21"/>
<path d="M331.802,430.499c-0.354,0.047-0.706,0.122-1.053,0.223C331.096,430.621,331.448,430.546,331.802,430.499z"/>
<path d="M310.071,445.001c-0.079-0.165-0.153-0.342-0.226-0.521C309.918,444.66,309.992,444.836,310.071,445.001z"/>
<path d="M281.074,432.559c-0.181,0.077-0.36,0.15-0.535,0.212C280.714,432.709,280.893,432.635,281.074,432.559z"/>
<path d="M349.346,445.776c-0.092-0.068-0.183-0.13-0.275-0.204C349.163,445.647,349.254,445.708,349.346,445.776z"/>
<path d="M350.592,446.508c0.042,0.017,0.082,0.02,0.124,0.036c-0.082-0.031-0.164-0.062-0.247-0.098
	C350.51,446.464,350.551,446.491,350.592,446.508z"/>
<path d="M310.871,446.3c-0.089-0.112-0.176-0.229-0.26-0.353C310.696,446.071,310.783,446.188,310.871,446.3z"/>
<path d="M350.063,446.24c-0.097-0.053-0.193-0.104-0.29-0.165C349.87,446.135,349.967,446.186,350.063,446.24z"/>
<path d="M311.342,446.817c-0.102-0.097-0.202-0.196-0.299-0.307C311.14,446.62,311.24,446.72,311.342,446.817z"/>
<path d="M310.449,445.696c-0.082-0.133-0.16-0.274-0.236-0.419C310.29,445.423,310.368,445.564,310.449,445.696z"/>
<path d="M352.537,446.779c-0.063,0.009-0.126,0.021-0.19,0.027C352.411,446.801,352.474,446.788,352.537,446.779z"/>
<path d="M277.004,432.892c0.166,0.069,0.341,0.124,0.523,0.167c-0.191-0.045-0.373-0.107-0.548-0.181
	C276.988,432.882,276.996,432.889,277.004,432.892z"/>
<path d="M280.248,432.863c-0.159,0.049-0.315,0.094-0.469,0.131C279.933,432.957,280.089,432.913,280.248,432.863z"/>
<path d="M278.133,433.149c-0.174-0.013-0.34-0.039-0.503-0.073C277.792,433.11,277.959,433.136,278.133,433.149z"/>
<path d="M278.788,433.149c-0.148,0.01-0.29,0.009-0.432,0.006C278.498,433.158,278.64,433.159,278.788,433.149z"/>
<path d="M351.56,446.78c-0.047-0.007-0.096-0.023-0.144-0.032C351.464,446.757,351.512,446.773,351.56,446.78z"/>
<path d="M279.492,433.056c-0.149,0.029-0.294,0.05-0.438,0.067C279.197,433.106,279.343,433.084,279.492,433.056z"/>
<path d="M279.223,365.281v-8.185h0L279.223,365.281c0,15.934,12.917,28.851,28.851,28.851h0
	C292.14,394.132,279.223,381.215,279.223,365.281z"/>
<path d="M329.421,431.255c-0.334,0.172-0.661,0.367-0.978,0.593C328.76,431.622,329.088,431.427,329.421,431.255z"/>
<path d="M334.256,430.606c-0.354-0.079-0.711-0.124-1.068-0.148C333.545,430.482,333.902,430.527,334.256,430.606z"/>
<path d="M316.099,446.981c-0.094,0.065-0.188,0.123-0.282,0.181C315.912,447.104,316.005,447.046,316.099,446.981z"/>
<path d="M316.789,446.438c-0.09,0.08-0.18,0.15-0.27,0.223C316.61,446.587,316.7,446.518,316.789,446.438z"/>
<path d="M335.321,430.94c-0.307-0.12-0.618-0.221-0.932-0.297C334.704,430.719,335.014,430.821,335.321,430.94z"/>
<path d="M315.407,447.389c-0.094,0.047-0.188,0.091-0.282,0.13C315.219,447.48,315.313,447.435,315.407,447.389z"/>
<path d="M332.911,430.448c-0.296-0.008-0.59,0.002-0.885,0.031C332.321,430.45,332.616,430.44,332.911,430.448z"/>
<path d="M317.471,445.76c-0.075,0.083-0.152,0.154-0.227,0.232C317.32,445.913,317.396,445.843,317.471,445.76z"/>
<path d="M276.411,432.568c-0.03-0.021-0.056-0.049-0.085-0.072C276.356,432.519,276.381,432.547,276.411,432.568z"/>
<path d="M328.3,431.962c-0.272,0.203-0.535,0.429-0.79,0.673C327.765,432.39,328.028,432.165,328.3,431.962z"/>
<path d="M314.714,447.662c-0.09,0.027-0.18,0.056-0.27,0.076C314.534,447.719,314.624,447.689,314.714,447.662z"/>
<path d="M338.804,433.509c-0.233-0.28-0.476-0.538-0.726-0.779C338.328,432.971,338.571,433.229,338.804,433.509z"/>
<path d="M348.598,445.15c-0.077-0.072-0.153-0.135-0.23-0.211C348.444,445.015,348.521,445.078,348.598,445.15z"/>
<path d="M311.911,447.276c-0.138-0.091-0.274-0.19-0.406-0.303C311.637,447.086,311.773,447.185,311.911,447.276z"/>
<path d="M313.247,447.789c-0.038-0.005-0.077-0.003-0.115-0.01C313.17,447.786,313.21,447.783,313.247,447.789z"/>
<path d="M312.485,447.589c0.009,0.004,0.018,0.004,0.027,0.008c-0.175-0.071-0.347-0.156-0.515-0.259
	C312.156,447.435,312.318,447.52,312.485,447.589z"/>
<path d="M336.986,431.837c-0.164-0.115-0.329-0.227-0.497-0.328C336.657,431.61,336.822,431.723,336.986,431.837z"/>
<path d="M314.014,447.801c-0.078,0.007-0.157,0.022-0.235,0.024C313.857,447.822,313.936,447.808,314.014,447.801z"/>
<path d="M337.823,432.504c-0.171-0.154-0.342-0.305-0.519-0.441C337.481,432.199,337.652,432.35,337.823,432.504z"/>
<path d="M354.804,445.404c-0.05,0.062-0.102,0.117-0.153,0.174C354.703,445.52,354.754,445.465,354.804,445.404z"/>
<path d="M270.434,404.364c-0.223-0.029-0.453-0.043-0.683-0.055C269.981,404.321,270.211,404.335,270.434,404.364z"/>
<path d="M362.32,423.735c-0.103,0.077-0.207,0.153-0.306,0.236C362.113,423.888,362.217,423.813,362.32,423.735z"/>
<path d="M253.506,405.645c-0.111,0-0.212-0.01-0.319-0.013C253.294,405.635,253.395,405.645,253.506,405.645z"/>
<path d="M252.56,405.596c-0.119-0.012-0.228-0.033-0.342-0.051C252.332,405.563,252.442,405.584,252.56,405.596z"/>
<path d="M271.401,404.549c-0.191-0.048-0.387-0.085-0.585-0.12C271.014,404.464,271.21,404.501,271.401,404.549z"/>
<path d="M361.678,424.28c-0.093,0.089-0.189,0.175-0.278,0.27C361.489,424.456,361.585,424.369,361.678,424.28z"/>
<path d="M274.478,406.139c-0.27-0.236-0.553-0.456-0.859-0.65C273.924,405.683,274.208,405.903,274.478,406.139z"/>
<path d="M363.011,423.276c-0.111,0.065-0.223,0.128-0.33,0.199C362.788,423.404,362.9,423.341,363.011,423.276z"/>
<path d="M273.497,405.421c-0.276-0.168-0.567-0.316-0.869-0.448C272.93,405.105,273.221,405.253,273.497,405.421z"/>
<path d="M365.335,422.427c-0.13,0.023-0.258,0.047-0.386,0.077C365.077,422.475,365.206,422.45,365.335,422.427z"/>
<path d="M248.929,403.458c-0.025-0.052-0.054-0.102-0.076-0.156C248.875,403.356,248.904,403.406,248.929,403.458z"/>
<path d="M361.092,424.909c-0.083,0.099-0.168,0.195-0.246,0.299C360.924,425.104,361.009,425.008,361.092,424.909z"/>
<path d="M249.37,404.151c-0.041-0.048-0.076-0.1-0.114-0.151C249.295,404.051,249.329,404.103,249.37,404.151z"/>
<path d="M366.176,422.329c-0.134,0.008-0.267,0.018-0.4,0.033C365.909,422.348,366.042,422.337,366.176,422.329z"/>
<path d="M251.709,405.455c-0.112-0.026-0.217-0.058-0.324-0.089C251.492,405.397,251.597,405.429,251.709,405.455z"/>
<path d="M250.069,404.768c-0.04-0.027-0.085-0.05-0.123-0.078C249.985,404.719,250.03,404.741,250.069,404.768z"/>
<path d="M364.524,422.62c-0.125,0.037-0.248,0.075-0.37,0.119C364.276,422.695,364.4,422.657,364.524,422.62z"/>
<path d="M250.823,405.183c0.041,0.017,0.089,0.027,0.131,0.043c-0.085-0.032-0.164-0.069-0.244-0.105
	C250.75,405.139,250.781,405.165,250.823,405.183z"/>
<path d="M274.949,430.231c-0.025-0.105-0.05-0.212-0.071-0.322C274.899,430.019,274.924,430.125,274.949,430.231z"/>
<path d="M355.916,443.309c-0.035,0.1-0.072,0.197-0.109,0.293C355.844,443.506,355.881,443.41,355.916,443.309z"/>
<path d="M355.413,444.473c-0.023,0.044-0.044,0.094-0.068,0.136C355.369,444.566,355.39,444.516,355.413,444.473z"/>
<path d="M275.186,430.974c-0.038-0.093-0.073-0.189-0.106-0.287C275.113,430.785,275.148,430.881,275.186,430.974z"/>
<path d="M274.807,429.378c-0.012-0.113-0.026-0.224-0.032-0.342C274.781,429.154,274.795,429.265,274.807,429.378z"/>
<path d="M353.315,446.571c-0.055,0.023-0.112,0.038-0.168,0.058C353.204,446.609,353.26,446.594,353.315,446.571z"/>
<path d="M275.922,432.143c-0.052-0.055-0.098-0.12-0.147-0.18C275.824,432.023,275.869,432.088,275.922,432.143z"/>
<path d="M354.138,446.069c-0.046,0.037-0.09,0.08-0.137,0.114C354.048,446.148,354.092,446.106,354.138,446.069z"/>
<path d="M248.642,402.54c-0.009-0.056-0.01-0.116-0.016-0.173C248.632,402.424,248.633,402.484,248.642,402.54z"/>
<path d="M275.512,431.611c-0.048-0.076-0.091-0.159-0.135-0.241C275.421,431.452,275.463,431.535,275.512,431.611z"/>
<path d="M276.954,411.692c-0.008-0.352-0.035-0.696-0.083-1.03C276.92,410.997,276.946,411.341,276.954,411.692z"/>
<path d="M276.85,410.476c-0.064-0.383-0.158-0.751-0.271-1.108C276.692,409.725,276.786,410.093,276.85,410.476z"/>
<path d="M359.706,427.33c-0.039,0.103-0.083,0.2-0.119,0.306C359.623,427.53,359.668,427.433,359.706,427.33z"/>
<path d="M275.282,406.974c-0.187-0.228-0.387-0.442-0.6-0.644C274.896,406.532,275.096,406.747,275.282,406.974z"/>
<path d="M276.016,408.05c-0.174-0.316-0.369-0.617-0.586-0.9C275.647,407.432,275.842,407.733,276.016,408.05z"/>
<path d="M360.565,425.623c-0.07,0.107-0.144,0.209-0.21,0.321C360.421,425.832,360.495,425.73,360.565,425.623z"/>
<path d="M276.866,413.305c0.063-0.437,0.087-0.862,0.092-1.279C276.952,412.443,276.929,412.868,276.866,413.305z"/>
<path d="M274.768,428.392c0.002-0.107-0.002-0.209,0.003-0.319C274.766,428.184,274.77,428.285,274.768,428.392z"/>
<path d="M413.341,393.78l-8.003-11.318c-0.595-0.842-1.024-1.714-1.293-2.588c-0.448-1.457-0.455-2.922-0.056-4.266
	c0.637-2.151,2.31-3.996,4.864-5.014l2.35-0.937l10.527-4.197c5.109-2.037,5.421-6.003,0.694-8.814l-11.915-7.085
	c-2.068-1.23-3.371-2.979-3.86-4.887c-0.14-0.545-0.213-1.103-0.219-1.666c-0.021-1.97,0.784-3.996,2.464-5.719l9.675-9.927
	c0.222-0.227,0.422-0.454,0.609-0.68c0.06-0.072,0.112-0.143,0.168-0.214c0.122-0.155,0.238-0.309,0.343-0.462
	c0.056-0.081,0.108-0.161,0.159-0.242c0.093-0.146,0.179-0.291,0.257-0.435c0.042-0.077,0.085-0.155,0.123-0.232
	c0.078-0.158,0.145-0.314,0.206-0.469c0.023-0.058,0.051-0.117,0.071-0.174c0.074-0.211,0.134-0.419,0.176-0.623
	c0.008-0.038,0.009-0.074,0.016-0.112c0.029-0.165,0.05-0.329,0.058-0.489c0.003-0.067,0-0.132,0-0.198
	c-0.001-0.129-0.007-0.257-0.022-0.382c-0.008-0.069-0.019-0.137-0.031-0.204c-0.023-0.123-0.053-0.243-0.09-0.361
	c-0.019-0.061-0.035-0.122-0.058-0.181c-0.052-0.138-0.116-0.271-0.188-0.402c-0.018-0.034-0.032-0.069-0.051-0.102
	c-0.096-0.161-0.208-0.316-0.334-0.465c-0.033-0.039-0.073-0.075-0.109-0.113c-0.099-0.107-0.204-0.212-0.319-0.311
	c-0.056-0.048-0.116-0.093-0.175-0.139c-0.11-0.085-0.226-0.168-0.348-0.246c-0.068-0.044-0.137-0.087-0.209-0.128
	c-0.135-0.078-0.279-0.151-0.427-0.221c-0.07-0.033-0.136-0.068-0.209-0.099c-0.073-0.031-0.156-0.057-0.233-0.087
	c-0.258-0.1-0.533-0.189-0.826-0.268c-0.101-0.027-0.202-0.054-0.307-0.079c-0.378-0.088-0.772-0.164-1.202-0.215l-13.766-1.626
	c0,0-0.001,0-0.001,0c-0.405-0.048-0.791-0.125-1.167-0.216c-0.113-0.027-0.221-0.061-0.331-0.092
	c-0.267-0.076-0.526-0.161-0.776-0.258c-0.063-0.024-0.133-0.039-0.195-0.065c-0.062-0.026-0.119-0.058-0.181-0.085
	c-0.098-0.044-0.195-0.089-0.29-0.136c-0.163-0.08-0.321-0.164-0.475-0.254c-0.088-0.051-0.176-0.1-0.261-0.154
	c-0.163-0.103-0.319-0.213-0.472-0.326c-0.064-0.048-0.132-0.092-0.195-0.142c-0.21-0.166-0.41-0.341-0.597-0.526
	c-0.026-0.026-0.049-0.055-0.075-0.081c-0.158-0.161-0.309-0.329-0.45-0.503c-0.056-0.069-0.106-0.141-0.159-0.212
	c-0.105-0.14-0.205-0.281-0.299-0.428c-0.052-0.082-0.101-0.165-0.15-0.249c-0.085-0.146-0.164-0.294-0.238-0.446
	c-0.042-0.086-0.084-0.171-0.123-0.259c-0.073-0.167-0.138-0.338-0.198-0.511c-0.027-0.076-0.057-0.151-0.081-0.228
	c-0.079-0.252-0.146-0.509-0.198-0.773c-0.004-0.021-0.005-0.042-0.009-0.063c-0.045-0.243-0.078-0.49-0.1-0.742
	c-0.008-0.09-0.009-0.181-0.013-0.272c-0.009-0.187-0.015-0.375-0.011-0.565c0.002-0.105,0.008-0.211,0.014-0.317
	c0.011-0.183,0.028-0.367,0.051-0.552c0.013-0.108,0.027-0.216,0.045-0.324c0.032-0.197,0.074-0.397,0.121-0.596
	c0.022-0.096,0.04-0.191,0.066-0.287c0.078-0.293,0.168-0.588,0.277-0.885c0.001-0.002,0.001-0.005,0.002-0.007l4.801-13.004
	c0.001-0.002,0.001-0.003,0.002-0.005c0.138-0.374,0.245-0.733,0.335-1.082c0.028-0.108,0.048-0.212,0.071-0.318
	c0.054-0.244,0.097-0.482,0.127-0.712c0.014-0.107,0.028-0.214,0.037-0.318c0.021-0.241,0.027-0.473,0.022-0.697
	c-0.002-0.07,0.003-0.143-0.001-0.211c-0.017-0.284-0.056-0.554-0.116-0.808c-0.014-0.058-0.035-0.109-0.051-0.165
	c-0.055-0.193-0.12-0.377-0.199-0.55c-0.033-0.072-0.071-0.141-0.108-0.21c-0.082-0.15-0.175-0.291-0.277-0.424
	c-0.044-0.057-0.085-0.116-0.133-0.17c-0.149-0.168-0.311-0.322-0.494-0.456c-0.008-0.006-0.014-0.013-0.022-0.019
	c-0.192-0.138-0.408-0.252-0.635-0.351c-0.164-0.072-0.333-0.139-0.514-0.19c-0.008-0.002-0.016-0.003-0.024-0.005
	c-0.187-0.051-0.386-0.089-0.591-0.118c-0.06-0.008-0.121-0.015-0.182-0.021c-0.177-0.019-0.359-0.03-0.548-0.032
	c-0.05-0.001-0.098-0.004-0.149-0.003c-0.236,0.002-0.481,0.018-0.735,0.046c-0.058,0.006-0.119,0.017-0.177,0.025
	c-0.206,0.027-0.417,0.063-0.634,0.107c-0.077,0.016-0.154,0.031-0.232,0.049c-0.276,0.063-0.558,0.135-0.851,0.226
	c-0.001,0-0.002,0-0.003,0.001l-13.237,4.114c-0.299,0.093-0.594,0.166-0.888,0.228c-0.091,0.019-0.18,0.033-0.27,0.05
	c-0.207,0.038-0.412,0.069-0.616,0.091c-0.096,0.011-0.192,0.021-0.288,0.029c-0.214,0.017-0.426,0.024-0.636,0.025
	c-0.071,0-0.143,0.004-0.213,0.003c-0.276-0.006-0.547-0.025-0.813-0.058c-0.058-0.007-0.114-0.02-0.172-0.028
	c-0.209-0.031-0.415-0.069-0.618-0.116c-0.085-0.02-0.168-0.042-0.251-0.065c-0.178-0.048-0.353-0.103-0.525-0.164
	c-0.078-0.028-0.157-0.054-0.234-0.084c-0.039-0.015-0.08-0.027-0.119-0.043c-0.068-0.028-0.13-0.069-0.197-0.099
	c-0.197-0.089-0.389-0.184-0.576-0.289c-0.1-0.057-0.197-0.116-0.294-0.177c-0.178-0.112-0.349-0.234-0.516-0.362
	c-0.087-0.066-0.174-0.13-0.258-0.201c-0.188-0.159-0.366-0.331-0.538-0.51c-0.049-0.051-0.102-0.096-0.15-0.149
	c-0.213-0.236-0.412-0.489-0.596-0.756c-0.048-0.07-0.088-0.146-0.134-0.217c-0.131-0.205-0.256-0.416-0.369-0.637
	c-0.054-0.105-0.102-0.214-0.151-0.322c-0.093-0.204-0.179-0.414-0.257-0.63c-0.042-0.118-0.084-0.236-0.121-0.358
	c-0.072-0.232-0.132-0.472-0.186-0.717c-0.025-0.112-0.054-0.221-0.075-0.335c-0.066-0.362-0.117-0.733-0.142-1.119l-0.903-13.832
	c-0.134-2.058-0.735-3.559-1.652-4.439c-0.306-0.293-0.646-0.518-1.016-0.671c-0.37-0.153-0.77-0.235-1.193-0.244
	c-1.271-0.026-2.756,0.61-4.307,1.971l-10.42,9.142c-0.001,0.001-0.003,0.002-0.004,0.003c-0.289,0.253-0.586,0.479-0.887,0.687
	c-0.097,0.067-0.195,0.124-0.292,0.186c-0.21,0.134-0.421,0.261-0.636,0.374c-0.113,0.06-0.226,0.114-0.34,0.168
	c-0.208,0.098-0.416,0.185-0.626,0.264c-0.112,0.042-0.222,0.085-0.334,0.121c-0.238,0.077-0.476,0.138-0.714,0.19
	c-0.082,0.018-0.163,0.043-0.245,0.058c-0.32,0.059-0.639,0.097-0.958,0.113c-0.069,0.004-0.138-0.002-0.207-0.001
	c-0.25,0.005-0.498,0.001-0.745-0.02c-0.108-0.009-0.215-0.026-0.322-0.04c-0.209-0.027-0.416-0.063-0.622-0.109
	c-0.112-0.025-0.222-0.052-0.333-0.083c-0.207-0.057-0.41-0.126-0.612-0.203c-0.069-0.026-0.141-0.041-0.209-0.069
	c-0.039-0.016-0.076-0.037-0.114-0.054c-0.076-0.033-0.15-0.07-0.225-0.106c-0.165-0.079-0.327-0.163-0.487-0.255
	c-0.075-0.043-0.15-0.086-0.224-0.132c-0.177-0.11-0.35-0.229-0.52-0.355c-0.046-0.034-0.094-0.065-0.14-0.101
	c-0.212-0.165-0.418-0.344-0.617-0.535c-0.05-0.048-0.097-0.1-0.146-0.15c-0.149-0.15-0.294-0.306-0.434-0.47
	c-0.062-0.073-0.122-0.147-0.182-0.222c-0.128-0.16-0.252-0.328-0.371-0.501c-0.052-0.075-0.105-0.148-0.156-0.226
	c-0.164-0.252-0.321-0.512-0.467-0.789l-6.451-12.269c-0.143-0.272-0.292-0.524-0.444-0.765c-0.042-0.067-0.085-0.132-0.128-0.197
	c-0.122-0.185-0.247-0.36-0.373-0.525c-0.036-0.047-0.072-0.098-0.108-0.143c-0.159-0.199-0.321-0.383-0.486-0.551
	c-0.037-0.037-0.074-0.07-0.111-0.106c-0.134-0.13-0.269-0.251-0.406-0.361c-0.049-0.039-0.097-0.079-0.147-0.116
	c-0.165-0.124-0.331-0.237-0.499-0.333c-0.008-0.004-0.015-0.01-0.022-0.014c-0.165-0.092-0.331-0.164-0.498-0.229
	c-0.231-0.091-0.464-0.162-0.697-0.201c-0.011-0.002-0.022-0.001-0.033-0.002c-0.222-0.034-0.445-0.04-0.667-0.027
	c-0.073,0.004-0.145,0.017-0.218,0.027c-0.164,0.021-0.328,0.055-0.491,0.103c-0.077,0.022-0.153,0.045-0.229,0.073
	c-0.176,0.065-0.351,0.149-0.524,0.245c-0.053,0.029-0.106,0.051-0.158,0.083c-0.221,0.137-0.439,0.3-0.652,0.488
	c-0.052,0.046-0.101,0.102-0.152,0.15c-0.162,0.154-0.321,0.322-0.476,0.507c-0.067,0.08-0.133,0.165-0.199,0.251
	c-0.142,0.184-0.279,0.384-0.414,0.594c-0.058,0.091-0.117,0.178-0.174,0.274c-0.185,0.312-0.364,0.643-0.532,1.007l-5.8,12.59
	c-0.134,0.29-0.28,0.564-0.434,0.829c-0.049,0.085-0.103,0.163-0.154,0.245c-0.109,0.176-0.221,0.348-0.339,0.512
	c-0.064,0.089-0.13,0.173-0.196,0.258c-0.116,0.148-0.234,0.291-0.356,0.429c-0.07,0.079-0.141,0.158-0.213,0.233
	c-0.132,0.137-0.268,0.266-0.407,0.392c-0.067,0.061-0.133,0.125-0.202,0.183c-0.191,0.161-0.387,0.311-0.589,0.449
	c-0.02,0.013-0.038,0.03-0.058,0.043c-0.222,0.15-0.451,0.283-0.685,0.405c-0.073,0.038-0.148,0.07-0.222,0.105
	c-0.164,0.079-0.329,0.154-0.497,0.22c-0.09,0.035-0.182,0.066-0.274,0.098c-0.158,0.054-0.317,0.103-0.479,0.146
	c-0.095,0.025-0.19,0.05-0.287,0.071c-0.168,0.037-0.338,0.066-0.509,0.09c-0.089,0.013-0.177,0.029-0.266,0.038
	c-0.221,0.023-0.443,0.035-0.667,0.037c-0.039,0-0.078,0.005-0.117,0.005c-0.263-0.002-0.528-0.02-0.793-0.05
	c-0.08-0.009-0.16-0.026-0.24-0.038c-0.187-0.028-0.375-0.06-0.562-0.103c-0.098-0.022-0.196-0.049-0.294-0.076
	c-0.172-0.046-0.343-0.098-0.515-0.156c-0.101-0.034-0.201-0.07-0.301-0.109c-0.062-0.024-0.125-0.042-0.188-0.068
	c-0.062-0.026-0.122-0.065-0.183-0.092c-0.246-0.109-0.489-0.231-0.731-0.366c-0.1-0.056-0.2-0.108-0.299-0.169
	c-0.331-0.201-0.658-0.42-0.979-0.673l-10.884-8.584c-0.34-0.268-0.673-0.493-1.003-0.698c-0.091-0.057-0.181-0.108-0.271-0.16
	c-0.262-0.151-0.521-0.283-0.775-0.395c-0.075-0.033-0.152-0.074-0.226-0.103c-0.073-0.029-0.145-0.052-0.217-0.077
	c-0.155-0.056-0.309-0.106-0.46-0.146c-0.079-0.021-0.158-0.039-0.236-0.056c-0.144-0.031-0.286-0.056-0.426-0.073
	c-0.073-0.009-0.146-0.019-0.217-0.025c-0.155-0.012-0.306-0.012-0.455-0.006c-0.049,0.002-0.1-0.001-0.148,0.003
	c-0.196,0.016-0.385,0.046-0.569,0.093c-0.033,0.008-0.064,0.022-0.096,0.032c-0.147,0.043-0.291,0.094-0.429,0.156
	c-0.055,0.025-0.108,0.056-0.162,0.084c-0.112,0.059-0.221,0.123-0.325,0.196c-0.055,0.038-0.108,0.077-0.161,0.118
	c-0.101,0.08-0.198,0.168-0.292,0.261c-0.045,0.045-0.092,0.087-0.135,0.135c-0.11,0.121-0.213,0.254-0.311,0.395
	c-0.02,0.029-0.043,0.053-0.062,0.083c-0.115,0.174-0.221,0.364-0.317,0.566c-0.026,0.054-0.048,0.115-0.072,0.171
	c-0.067,0.153-0.131,0.312-0.187,0.48c-0.027,0.081-0.052,0.166-0.077,0.251c-0.046,0.157-0.088,0.32-0.126,0.489
	c-0.021,0.093-0.041,0.187-0.059,0.284c-0.034,0.183-0.061,0.374-0.084,0.569c-0.011,0.09-0.024,0.178-0.033,0.271
	c-0.027,0.292-0.046,0.594-0.05,0.911l-0.178,13.861c-0.031,2.406-0.894,4.409-2.302,5.786c-0.402,0.394-0.849,0.736-1.333,1.023
	c-0.484,0.287-1.007,0.517-1.56,0.686c-0.553,0.169-1.137,0.277-1.746,0.319c-0.608,0.042-1.241,0.017-1.892-0.08
	c-0.325-0.048-0.655-0.114-0.988-0.199l-13.435-3.415c-0.666-0.169-1.29-0.27-1.866-0.307c-1.441-0.093-2.59,0.214-3.385,0.847
	c-0.477,0.38-0.826,0.878-1.035,1.478c-0.417,1.201-0.271,2.81,0.543,4.705l4.476,10.411l0.999,2.324
	c0.407,0.947,0.645,1.889,0.726,2.8c0.108,1.215-0.061,2.376-0.475,3.422c-0.726,1.831-2.203,3.314-4.258,4.128
	c-0.587,0.233-1.222,0.411-1.899,0.527l-13.662,2.344c-5.421,0.93-6.551,4.745-2.511,8.478l10.181,9.407
	c3.535,3.266,3.642,7.926,0.549,11.086c-0.442,0.451-0.949,0.872-1.521,1.254l-11.528,7.699c-0.279,0.186-0.538,0.376-0.779,0.568
	c-0.084,0.067-0.153,0.135-0.232,0.202c-0.149,0.127-0.301,0.254-0.434,0.382c-0.083,0.08-0.151,0.161-0.228,0.241
	c-0.112,0.118-0.227,0.236-0.326,0.355c-0.072,0.086-0.131,0.174-0.196,0.261c-0.085,0.114-0.172,0.228-0.245,0.342
	c-0.058,0.091-0.104,0.181-0.154,0.272c-0.062,0.111-0.125,0.222-0.175,0.333c-0.042,0.093-0.074,0.186-0.108,0.279
	c-0.04,0.109-0.081,0.217-0.11,0.326c-0.026,0.094-0.042,0.187-0.059,0.281c-0.02,0.107-0.039,0.213-0.049,0.319
	c-0.008,0.094-0.009,0.187-0.009,0.279c0,0.104,0.001,0.208,0.011,0.311c0.009,0.092,0.024,0.184,0.041,0.275
	c0.019,0.102,0.041,0.202,0.07,0.302c0.026,0.09,0.057,0.179,0.091,0.267c0.038,0.098,0.08,0.196,0.128,0.292
	c0.043,0.086,0.09,0.172,0.141,0.257c0.057,0.095,0.12,0.188,0.188,0.281c0.06,0.082,0.122,0.164,0.19,0.244
	c0.077,0.091,0.161,0.18,0.248,0.268c0.076,0.077,0.154,0.154,0.238,0.229c0.096,0.086,0.201,0.169,0.307,0.252
	c0.093,0.072,0.185,0.144,0.285,0.214c0.116,0.081,0.242,0.158,0.369,0.234c0.108,0.065,0.213,0.131,0.328,0.194
	c0.138,0.075,0.287,0.145,0.435,0.216c0.122,0.058,0.241,0.117,0.37,0.172c0.261,0.111,0.531,0.219,0.821,0.317l13.127,4.453
	c0.212,0.072,0.419,0.15,0.619,0.233c0.056,0.023,0.106,0.052,0.161,0.076c0.139,0.061,0.273,0.126,0.407,0.193
	c0.152,0.075,0.302,0.151,0.447,0.233c0.127,0.072,0.249,0.147,0.37,0.224c0.138,0.087,0.274,0.176,0.404,0.27
	c0.115,0.082,0.225,0.167,0.334,0.253c0.124,0.098,0.244,0.199,0.36,0.303c0.101,0.091,0.199,0.184,0.295,0.279
	c0.11,0.109,0.215,0.221,0.316,0.335c0.088,0.099,0.173,0.199,0.255,0.301c0.095,0.119,0.184,0.24,0.271,0.364
	c0.074,0.106,0.146,0.212,0.214,0.321c0.08,0.128,0.153,0.258,0.224,0.39c0.06,0.112,0.12,0.223,0.173,0.338
	c0.064,0.136,0.12,0.274,0.175,0.414c0.046,0.117,0.092,0.233,0.132,0.352c0.048,0.143,0.086,0.288,0.125,0.434
	c0.032,0.121,0.065,0.241,0.09,0.363c0.031,0.149,0.052,0.301,0.073,0.453c0.017,0.123,0.037,0.246,0.048,0.371
	c0.014,0.155,0.016,0.312,0.019,0.469c0.003,0.125,0.009,0.248,0.006,0.374c-0.005,0.161-0.022,0.323-0.037,0.485
	c-0.012,0.125-0.018,0.249-0.036,0.374c-0.024,0.167-0.062,0.334-0.097,0.502c-0.026,0.122-0.045,0.243-0.076,0.365
	c-0.045,0.176-0.106,0.352-0.164,0.528c-0.038,0.114-0.068,0.229-0.111,0.343c-0.073,0.195-0.164,0.389-0.253,0.583
	c-0.044,0.095-0.079,0.191-0.126,0.286c-0.144,0.289-0.305,0.576-0.485,0.861l-7.4,11.722c-0.237,0.376-0.43,0.74-0.603,1.098
	c-0.046,0.095-0.088,0.188-0.129,0.282c-0.136,0.307-0.25,0.608-0.339,0.899c-0.014,0.046-0.034,0.094-0.047,0.14
	c-0.092,0.328-0.148,0.643-0.18,0.947c-0.008,0.077-0.01,0.152-0.015,0.228c-0.014,0.248-0.01,0.486,0.016,0.715
	c0.006,0.057,0.007,0.117,0.016,0.173c0.042,0.269,0.113,0.523,0.211,0.762c0.022,0.054,0.051,0.104,0.076,0.156
	c0.091,0.192,0.2,0.372,0.328,0.542c0.038,0.05,0.073,0.103,0.114,0.151c0.167,0.197,0.357,0.379,0.576,0.54
	c0.038,0.028,0.083,0.051,0.123,0.078c0.195,0.132,0.409,0.249,0.64,0.352c0.08,0.036,0.16,0.073,0.244,0.105
	c0.137,0.053,0.283,0.098,0.432,0.141c0.107,0.031,0.212,0.063,0.324,0.089c0.162,0.037,0.335,0.064,0.51,0.091
	c0.114,0.017,0.223,0.038,0.342,0.051c0.2,0.021,0.413,0.029,0.626,0.036c0.107,0.004,0.209,0.013,0.319,0.013
	c0.329,0,0.671-0.014,1.03-0.047c0.002,0,0.004,0,0.006,0l13.803-1.272c0.364-0.034,0.72-0.044,1.069-0.038
	c0.115,0.002,0.224,0.015,0.337,0.021c0.231,0.012,0.46,0.026,0.683,0.055c0.13,0.017,0.255,0.043,0.382,0.065
	c0.198,0.035,0.395,0.072,0.585,0.12c0.129,0.033,0.255,0.071,0.381,0.11c0.18,0.055,0.356,0.114,0.529,0.18
	c0.058,0.022,0.121,0.037,0.178,0.061c0.049,0.02,0.091,0.051,0.14,0.072c0.302,0.133,0.593,0.28,0.869,0.448
	c0.04,0.024,0.082,0.044,0.121,0.068c0.306,0.194,0.59,0.414,0.859,0.65c0.07,0.062,0.137,0.127,0.204,0.191
	c0.214,0.202,0.414,0.417,0.6,0.644c0.049,0.059,0.101,0.115,0.148,0.176c0.217,0.283,0.412,0.583,0.586,0.9
	c0.04,0.073,0.073,0.15,0.111,0.224c0.134,0.265,0.252,0.541,0.355,0.826c0.032,0.089,0.067,0.177,0.096,0.268
	c0.114,0.357,0.208,0.725,0.271,1.108c0.01,0.061,0.013,0.124,0.022,0.186c0.048,0.335,0.074,0.678,0.083,1.03
	c0.003,0.111,0.005,0.221,0.003,0.333c-0.005,0.418-0.029,0.842-0.092,1.279l-1.992,13.718c-0.053,0.366-0.085,0.714-0.102,1.051
	c-0.006,0.11-0.002,0.212-0.003,0.319c-0.004,0.22-0.005,0.438,0.006,0.644c0.007,0.118,0.021,0.229,0.032,0.342
	c0.019,0.182,0.04,0.36,0.072,0.53c0.02,0.111,0.045,0.217,0.071,0.322c0.038,0.158,0.081,0.31,0.131,0.456
	c0.033,0.098,0.068,0.195,0.106,0.287c0.057,0.139,0.122,0.27,0.191,0.396c0.044,0.082,0.087,0.165,0.135,0.241
	c0.08,0.126,0.171,0.241,0.263,0.352c0.049,0.06,0.094,0.124,0.147,0.18c0.125,0.131,0.262,0.247,0.404,0.354
	c0.03,0.022,0.055,0.051,0.085,0.072c0.177,0.122,0.367,0.225,0.568,0.311c0.174,0.074,0.356,0.135,0.548,0.181
	c0.033,0.008,0.069,0.01,0.102,0.017c0.162,0.034,0.329,0.06,0.503,0.073c0.073,0.006,0.149,0.003,0.224,0.005
	c0.141,0.004,0.284,0.004,0.432-0.006c0.087-0.006,0.177-0.017,0.266-0.027c0.143-0.016,0.289-0.038,0.438-0.067
	c0.095-0.018,0.191-0.038,0.288-0.062c0.153-0.037,0.31-0.081,0.469-0.131c0.097-0.03,0.192-0.058,0.291-0.093
	c0.175-0.062,0.354-0.135,0.535-0.212c0.087-0.037,0.172-0.068,0.26-0.109c0.27-0.124,0.545-0.261,0.827-0.419l12.093-6.776
	c1.499-0.84,3.033-1.21,4.478-1.159c0.867,0.03,1.703,0.212,2.48,0.534c1.295,0.537,2.429,1.463,3.28,2.728
	c0.17,0.253,0.329,0.52,0.475,0.8c0.293,0.56,0.536,1.172,0.723,1.834l3.76,13.342c0.001,0.003,0.002,0.005,0.002,0.008
	c0.087,0.307,0.183,0.596,0.285,0.872c0.034,0.093,0.073,0.177,0.109,0.266c0.073,0.179,0.147,0.356,0.226,0.521
	c0.046,0.096,0.094,0.185,0.142,0.276c0.076,0.145,0.155,0.286,0.236,0.419c0.053,0.086,0.107,0.17,0.162,0.251
	c0.084,0.124,0.171,0.241,0.26,0.353c0.057,0.071,0.113,0.143,0.171,0.209c0.097,0.11,0.197,0.21,0.299,0.307
	c0.055,0.052,0.108,0.108,0.164,0.156c0.132,0.113,0.267,0.212,0.406,0.303c0.029,0.019,0.056,0.044,0.086,0.062
	c0.167,0.103,0.339,0.188,0.515,0.259c0.203,0.082,0.41,0.144,0.621,0.182c0.038,0.007,0.077,0.005,0.115,0.01
	c0.175,0.025,0.352,0.04,0.532,0.036c0.078-0.002,0.157-0.016,0.235-0.024c0.143-0.014,0.286-0.03,0.431-0.062
	c0.089-0.02,0.18-0.049,0.27-0.076c0.137-0.041,0.273-0.087,0.411-0.144c0.094-0.039,0.188-0.083,0.282-0.13
	c0.137-0.067,0.273-0.144,0.41-0.227c0.094-0.057,0.188-0.116,0.282-0.181c0.14-0.097,0.28-0.207,0.42-0.32
	c0.09-0.073,0.18-0.143,0.27-0.223c0.152-0.136,0.304-0.289,0.455-0.446c0.076-0.078,0.152-0.149,0.227-0.232
	c0.223-0.247,0.445-0.514,0.664-0.807c0.002-0.003,0.004-0.005,0.006-0.008l8.291-11.109c0.265-0.354,0.548-0.671,0.84-0.97
	c0.078-0.08,0.157-0.156,0.236-0.232c0.256-0.244,0.519-0.469,0.79-0.673c0.049-0.036,0.095-0.078,0.144-0.113
	c0.317-0.227,0.644-0.421,0.978-0.593c0.084-0.043,0.169-0.08,0.253-0.12c0.277-0.13,0.557-0.242,0.842-0.335
	c0.078-0.025,0.154-0.055,0.232-0.078c0.348-0.101,0.699-0.176,1.053-0.223c0.075-0.01,0.15-0.012,0.225-0.019
	c0.294-0.029,0.589-0.039,0.885-0.031c0.092,0.003,0.184,0.003,0.277,0.009c0.358,0.024,0.714,0.069,1.068,0.148
	c0.045,0.01,0.089,0.026,0.133,0.037c0.314,0.076,0.624,0.177,0.932,0.297c0.049,0.019,0.1,0.027,0.15,0.048
	c0.057,0.024,0.112,0.058,0.169,0.083c0.169,0.075,0.335,0.158,0.501,0.246c0.116,0.062,0.233,0.123,0.347,0.192
	c0.168,0.101,0.333,0.213,0.497,0.328c0.106,0.074,0.214,0.145,0.318,0.225c0.177,0.136,0.348,0.288,0.519,0.441
	c0.085,0.076,0.172,0.145,0.256,0.226c0.25,0.242,0.493,0.5,0.726,0.779c0.001,0.001,0.002,0.002,0.003,0.003l8.861,10.66
	c0.232,0.279,0.465,0.532,0.699,0.767c0.076,0.076,0.153,0.139,0.23,0.211c0.158,0.148,0.316,0.294,0.473,0.422
	c0.092,0.074,0.183,0.136,0.275,0.204c0.143,0.105,0.285,0.209,0.427,0.298c0.097,0.061,0.194,0.112,0.29,0.165
	c0.136,0.075,0.271,0.146,0.406,0.206c0.083,0.037,0.165,0.067,0.247,0.098c0.236,0.09,0.47,0.159,0.7,0.203
	c0.048,0.009,0.096,0.025,0.144,0.032c0.268,0.041,0.531,0.047,0.788,0.026c0.064-0.005,0.126-0.018,0.19-0.027
	c0.208-0.03,0.412-0.08,0.611-0.15c0.056-0.02,0.113-0.035,0.168-0.058c0.237-0.1,0.467-0.229,0.686-0.388
	c0.047-0.034,0.091-0.077,0.137-0.114c0.178-0.143,0.349-0.307,0.513-0.491c0.051-0.058,0.103-0.113,0.153-0.174
	c0.192-0.238,0.374-0.499,0.541-0.795c0.024-0.043,0.044-0.092,0.068-0.136c0.143-0.267,0.273-0.559,0.394-0.87
	c0.037-0.096,0.074-0.193,0.109-0.293c0.131-0.374,0.251-0.766,0.349-1.198c0-0.001,0.001-0.002,0.001-0.003l3.056-13.521
	c0.002-0.01,0.006-0.019,0.008-0.029c0.073-0.318,0.159-0.625,0.258-0.922c0.035-0.106,0.08-0.203,0.119-0.306
	c0.073-0.195,0.144-0.392,0.228-0.576c0.052-0.114,0.113-0.219,0.168-0.329c0.082-0.162,0.162-0.327,0.253-0.481
	c0.066-0.112,0.14-0.214,0.21-0.321c0.092-0.14,0.182-0.282,0.281-0.414c0.078-0.105,0.164-0.2,0.246-0.299
	c0.101-0.122,0.201-0.245,0.308-0.359c0.089-0.095,0.185-0.181,0.278-0.27c0.11-0.105,0.22-0.212,0.336-0.309
	c0.099-0.083,0.203-0.159,0.306-0.236c0.119-0.089,0.237-0.179,0.361-0.26c0.108-0.071,0.219-0.134,0.33-0.199
	c0.127-0.074,0.254-0.147,0.385-0.213c0.115-0.058,0.233-0.109,0.352-0.16c0.134-0.058,0.268-0.115,0.406-0.165
	c0.122-0.044,0.246-0.082,0.37-0.119c0.141-0.042,0.282-0.082,0.426-0.115c0.127-0.03,0.256-0.054,0.386-0.077
	c0.146-0.026,0.293-0.048,0.441-0.065c0.132-0.015,0.265-0.026,0.4-0.033c0.151-0.009,0.302-0.013,0.454-0.013
	c0.136,0,0.273,0.004,0.41,0.011c0.154,0.008,0.309,0.022,0.466,0.04c0.139,0.016,0.277,0.034,0.417,0.057
	c0.158,0.026,0.316,0.059,0.475,0.095c0.14,0.032,0.28,0.065,0.421,0.104c0.16,0.044,0.32,0.097,0.48,0.151
	c0.141,0.048,0.283,0.096,0.424,0.152c0.056,0.022,0.112,0.037,0.168,0.06c0.201,0.083,0.402,0.174,0.602,0.273l12.431,6.134
	c0,0,0,0,0,0c0.274,0.135,0.541,0.25,0.804,0.356c0.13,0.052,0.256,0.094,0.383,0.139c0.155,0.055,0.31,0.111,0.461,0.155
	c0.125,0.037,0.245,0.065,0.366,0.095c0.145,0.036,0.29,0.071,0.431,0.096c0.119,0.022,0.234,0.036,0.349,0.05
	c0.135,0.017,0.269,0.032,0.399,0.04c0.111,0.006,0.219,0.006,0.326,0.006c0.125-0.001,0.249-0.004,0.369-0.015
	c0.103-0.009,0.202-0.022,0.301-0.038c0.115-0.018,0.229-0.04,0.338-0.067c0.094-0.023,0.185-0.05,0.274-0.08
	c0.105-0.035,0.207-0.075,0.306-0.119c0.084-0.037,0.166-0.077,0.246-0.121c0.094-0.052,0.184-0.109,0.271-0.169
	c0.074-0.051,0.147-0.103,0.216-0.16c0.082-0.068,0.159-0.143,0.235-0.219c0.063-0.064,0.126-0.127,0.184-0.197
	c0.07-0.084,0.134-0.176,0.197-0.269c0.052-0.076,0.104-0.15,0.151-0.232c0.058-0.1,0.107-0.209,0.157-0.318
	c0.04-0.087,0.082-0.172,0.117-0.265c0.044-0.117,0.079-0.243,0.115-0.369c0.028-0.097,0.058-0.191,0.081-0.293
	c0.03-0.136,0.049-0.281,0.07-0.426c0.015-0.104,0.035-0.204,0.045-0.313c0.015-0.157,0.017-0.325,0.021-0.491
	c0.003-0.108,0.011-0.211,0.009-0.323c-0.003-0.189-0.021-0.39-0.037-0.59c-0.008-0.099-0.009-0.193-0.021-0.295
	c-0.035-0.307-0.083-0.624-0.149-0.954l-2.708-13.595c-1.074-5.394,2.543-9.63,8.039-9.412l13.851,0.547
	c1.03,0.041,1.934-0.049,2.702-0.252c0.512-0.135,0.963-0.32,1.351-0.55c0.388-0.23,0.712-0.504,0.971-0.818
	c0.129-0.157,0.242-0.324,0.337-0.5C415.248,398.022,414.929,396.025,413.341,393.78z M402.27,357.097L402.27,357.097h-20.82v8.185
	c0,9.461-4.554,17.858-11.589,23.119c-1.111,0.831-2.284,1.583-3.51,2.25c-0.818,0.444-1.659,0.85-2.522,1.215
	c-0.863,0.365-1.747,0.689-2.651,0.97c-2.71,0.843-5.592,1.297-8.579,1.297h-44.525h0c-15.934,0-28.851-12.917-28.851-28.851v-8.185
	h-20.82v-16.242c0-0.777,0.126-1.524,0.354-2.226c0.938-2.893,3.653-4.987,6.859-4.987h43.901h0v4.987v25.21h0h41.64v-25.21v-4.987
	h0h43.901h0c3.206,0,5.92,2.094,6.859,4.987c0.227,0.701,0.354,1.448,0.354,2.226V357.097z"/>
<path d="M411.615,406.401c-0.854,0.12-1.745,0.183-2.69,0.145l-13.851-0.547c-1.095-0.043-1.977,0.26-2.484,0.853
	c-0.507,0.593-0.668,1.512-0.454,2.587l2.707,13.595c0.872,4.38-0.187,8.172-2.906,10.404c-2.639,2.166-6.365,2.491-10.225,0.893
	c-0.33-0.137-0.667-0.289-1-0.454l-12.431-6.134c-0.101-0.05-0.202-0.096-0.304-0.138c-0.632-0.262-1.557-0.486-2.371-0.064
	c-0.674,0.349-1.174,1.112-1.408,2.149l-3.056,13.521c-1.049,4.64-3.456,6.747-5.29,7.697c-2.208,1.144-4.756,1.222-7.175,0.22
	c-1.75-0.725-3.384-1.99-4.855-3.759l-8.861-10.66c-0.431-0.518-0.916-0.899-1.405-1.101c-1.467-0.608-2.583,0.503-3.117,1.219
	l-8.291,11.109c-3.812,5.107-8.48,5.555-11.578,4.272c-1.971-0.817-4.602-2.784-5.936-7.518l-3.76-13.342
	c-0.297-1.055-0.858-1.8-1.579-2.099s-1.645-0.168-2.6,0.367l-12.093,6.776c-4.291,2.404-7.542,1.936-9.513,1.119
	c-3.098-1.283-6.082-4.901-5.166-11.207l1.992-13.718c0.128-0.884,0.125-2.459-1.342-3.067c-0.488-0.202-1.101-0.276-1.772-0.215
	L255,410.576c-2.291,0.211-4.341-0.049-6.091-0.775c-2.418-1.002-4.165-2.859-4.917-5.229c-0.625-1.969-0.838-5.16,1.702-9.183
	l7.4-11.722c0.568-0.899,0.754-1.793,0.524-2.516c-0.278-0.874-1.09-1.369-1.722-1.631c-0.101-0.042-0.205-0.081-0.312-0.117
	l-13.127-4.453c-0.352-0.119-0.698-0.249-1.028-0.386c-3.859-1.599-6.264-4.464-6.599-7.861c-0.344-3.501,1.588-6.931,5.302-9.411
	l11.528-7.699c0.911-0.609,1.447-1.372,1.508-2.15s-0.348-1.616-1.153-2.36l-10.181-9.407c-0.694-0.641-1.28-1.316-1.799-2.005
	l-57.304,138.345h205.706L411.615,406.401z"/>
</svg>
